<svg xmlns="http://www.w3.org/2000/svg" xmlns:xlink="http://www.w3.org/1999/xlink" width="48" height="48" viewBox="0 0 48 48">
  <defs>
    <linearGradient id="linear-gradient" y1="0.5" x2="1" y2="0.5" gradientUnits="objectBoundingBox">
      <stop offset="0" stop-color="#fed773"/>
      <stop offset="1" stop-color="#fdbe18"/>
    </linearGradient>
    <linearGradient id="linear-gradient-4" x1="-0.482" y1="0.774" x2="1.482" y2="0.152" xlink:href="#linear-gradient"/>
    <linearGradient id="linear-gradient-5" x1="302.666" y1="32.881" x2="309.914" y2="32.353" xlink:href="#linear-gradient"/>
  </defs>
  <g id="Grupo_363" data-name="Grupo 363" transform="translate(-1494 -247)">
    <rect id="Rectángulo_133" data-name="Rectángulo 133" width="48" height="48" rx="4" transform="translate(1494 247)" fill="#fff"/>
    <g id="Grupo_362" data-name="Grupo 362" transform="translate(1499.419 252.419)">
      <g id="Grupo_7" data-name="Grupo 7">
        <g id="Grupo_6" data-name="Grupo 6">
          <path id="Trazado_20" data-name="Trazado 20" d="M3.177,10.035l.008,0A6.38,6.38,0,0,1,9.511,4.39c4.822,0,5.813,4.02,6.345,6.18.663,2.69,1.478,4.915,4.733,4.915a4.716,4.716,0,0,0,0-9.432,4.662,4.662,0,0,0-3.413,1.468.831.831,0,0,1-1.2-1.146A6.309,6.309,0,0,1,20.589,4.39a6.38,6.38,0,0,1,6.325,5.645h10.6V7.112A7.112,7.112,0,0,0,30.405,0H15.784V3.9c0,.273-.329.5-.735.5s-.735-.222-.735-.5V0h-7.2A7.112,7.112,0,0,0,0,7.112v2.923Zm15.4,2.362,1.6-3.857a.481.481,0,0,1,.888,0l1.593,3.846a.468.468,0,0,1,0,.368.48.48,0,0,1-.888,0L20.62,9.983l-1.153,2.783a.481.481,0,0,1-.89-.368Z" transform="translate(0 0)" fill="#6f00ff"/>
          <path id="Trazado_21" data-name="Trazado 21" d="M26.914,24.827a6.38,6.38,0,0,1-6.325,5.645c-4.822,0-5.813-4.021-6.345-6.18-.663-2.69-1.478-4.916-4.733-4.916a4.716,4.716,0,0,0,0,9.432,4.666,4.666,0,0,0,3.414-1.468.831.831,0,1,1,1.2,1.146,6.307,6.307,0,0,1-4.618,1.986,6.38,6.38,0,0,1-6.325-5.647l-.008,0H0V43.321a7.112,7.112,0,0,0,7.112,7.112h7.2V31.051a.755.755,0,0,1,1.469,0V50.433H30.405a7.112,7.112,0,0,0,7.112-7.112V24.827ZM11.521,22.465l-1.6,3.856a.481.481,0,0,1-.888,0L7.443,22.476a.482.482,0,0,1,.259-.629.481.481,0,0,1,.629.26L9.48,24.879,10.632,22.1a.481.481,0,1,1,.89.368Z" transform="translate(0 -13.322)" fill="#6f00ff"/>
        </g>
      </g>
      <g id="Grupo_8" data-name="Grupo 8" transform="translate(0 4.385)">
        <path id="Trazado_22" data-name="Trazado 22" d="M27.531,27.162a.482.482,0,0,0-.629.261l-1.154,2.785L24.6,27.433a.481.481,0,0,0-.89,0,.477.477,0,0,0,0,.368L25.3,31.651a.482.482,0,0,0,.89,0l1.6-3.86a.482.482,0,0,0-.261-.629Z" transform="translate(-16.275 -23.034)" fill="url(#linear-gradient)"/>
        <path id="Trazado_23" data-name="Trazado 23" d="M59.641,31.165a.482.482,0,0,0,.629-.261l1.154-2.785,1.149,2.774a.482.482,0,0,0,.89-.369l-1.594-3.849a.482.482,0,0,0-.89,0l-1.6,3.86a.482.482,0,0,0,.261.629Z" transform="translate(-40.802 -22.522)" fill="url(#linear-gradient)"/>
        <path id="Trazado_24" data-name="Trazado 24" d="M37.517,19.685h-10.6a6.386,6.386,0,0,0-6.33-5.651,6.315,6.315,0,0,0-4.622,1.987.832.832,0,1,0,1.205,1.147A4.668,4.668,0,0,1,20.592,15.7a4.72,4.72,0,0,1,0,9.441c-3.259,0-4.074-2.228-4.737-4.92-.533-2.161-1.525-6.185-6.352-6.185a6.386,6.386,0,0,0-6.33,5.651H0v1.469H3.172A6.386,6.386,0,0,0,9.5,26.8a6.315,6.315,0,0,0,4.622-1.987A.832.832,0,1,0,12.92,23.67,4.668,4.668,0,0,1,9.5,25.14a4.72,4.72,0,0,1,0-9.441c3.259,0,4.074,2.228,4.737,4.92.533,2.161,1.525,6.185,6.352,6.185a6.386,6.386,0,0,0,6.33-5.651h10.6Z" transform="translate(0 -14.034)" fill="url(#linear-gradient)"/>
      </g>
      <path id="Rectángulo_1" data-name="Rectángulo 1" d="M0,0H1.469a0,0,0,0,1,0,0V3.909a.735.735,0,0,1-.735.735h0A.735.735,0,0,1,0,3.909V0A0,0,0,0,1,0,0Z" transform="translate(14.315 0)" fill="url(#linear-gradient-4)"/>
      <path id="Rectángulo_2" data-name="Rectángulo 2" d="M0,0H1.469a0,0,0,0,1,0,0V19.438a.735.735,0,0,1-.735.735h0A.735.735,0,0,1,0,19.438V0A0,0,0,0,1,0,0Z" transform="translate(15.784 37.111) rotate(180)" fill="url(#linear-gradient-5)"/>
    </g>
  </g>
</svg>
