<svg xmlns="http://www.w3.org/2000/svg" xmlns:xlink="http://www.w3.org/1999/xlink" width="50" height="50" viewBox="0 0 50 50">
  <defs>
    <linearGradient id="linear-gradient" x1="0.5" x2="0.5" y2="1" gradientUnits="objectBoundingBox">
      <stop offset="0" stop-color="#fed773"/>
      <stop offset="1" stop-color="#fdbe18"/>
    </linearGradient>
  </defs>
  <g id="Group_347" data-name="Group 347" transform="translate(-1233 -2760)">
    <g id="Group_341" data-name="Group 341" transform="translate(1008.679 1424.678)">
      <g id="Rectangle_27" data-name="Rectangle 27" transform="translate(224.321 1335.321)" stroke="#c6931a" stroke-width="2" fill="url(#linear-gradient)">
        <rect width="50" height="50" rx="10" stroke="none"/>
        <rect x="1" y="1" width="48" height="48" rx="9" fill="none"/>
      </g>
    </g>
    <g id="Layer_2" data-name="Layer 2" transform="translate(1242.007 2769)">
      <path id="Path_470" data-name="Path 470" d="M7.55,26h6.9L11,17.63Z" fill="#fff"/>
      <path id="Path_471" data-name="Path 471" d="M29.91,24.59l-8-18A1,1,0,0,0,21,6H12.71a1.92,1.92,0,0,1,.12.18l8,18A2,2,0,0,1,20.72,26H29a1,1,0,0,0,.91-1.41ZM19.65,24,12.54,8l-.63-1.41A1,1,0,0,0,11,6h-.21l-.18.06a1,1,0,0,0-.27.17.38.38,0,0,0-.09.09,1.07,1.07,0,0,0-.16.25h0l-8,18A1,1,0,0,0,3,26H5.39l4.69-11.38a1.16,1.16,0,0,1,.21-.33,1.21,1.21,0,0,1,.3-.2h0a.58.58,0,0,1,.14,0A.93.93,0,0,1,11,14a1.06,1.06,0,0,1,.3.06h.08a.9.9,0,0,1,.54.54L15.79,24l.82,2H19a1,1,0,0,0,.91-1.41Z" fill="#fff"/>
    </g>
  </g>
</svg>
