<svg xmlns="http://www.w3.org/2000/svg" xmlns:xlink="http://www.w3.org/1999/xlink" width="50" height="50" viewBox="0 0 50 50">
  <defs>
    <linearGradient id="linear-gradient" x1="0.5" x2="0.5" y2="1" gradientUnits="objectBoundingBox">
      <stop offset="0" stop-color="#fed773"/>
      <stop offset="1" stop-color="#fdbe18"/>
    </linearGradient>
  </defs>
  <g id="Group_346" data-name="Group 346" transform="translate(-1096 -2760)">
    <g id="Group_340" data-name="Group 340" transform="translate(871.678 1424.678)">
      <g id="Rectangle_27" data-name="Rectangle 27" transform="translate(224.321 1335.321)" stroke="#c6931a" stroke-width="2" fill="url(#linear-gradient)">
        <rect width="50" height="50" rx="10" stroke="none"/>
        <rect x="1" y="1" width="48" height="48" rx="9" fill="none"/>
      </g>
    </g>
    <g id="Group_342" data-name="Group 342" transform="translate(1100.99 2769)">
      <path id="Path_465" data-name="Path 465" d="M22.225,8.858A4.429,4.429,0,1,0,17.8,4.427,4.431,4.431,0,0,0,22.225,8.858ZM14.131,19.879h4.33c2.836-.135,3.336-1.9,3.384-2.105a.373.373,0,0,1,.375-.3.381.381,0,0,1,.375.308c0,.019.433,1.961,3.408,2.1h4.306a.931.931,0,0,0,.942-.942V15.563c.082-3.739-5.835-4.571-8.382-4.753l-.139-.01,1.452,4.878,4.042,1.192a.383.383,0,1,1-.216.735l-4.244-1.254a.376.376,0,0,1-.255-.255L22.2,11.7l-1.961,4.494a.407.407,0,0,1-.226.211l-3.581,1.2a.358.358,0,0,1-.115.019.383.383,0,0,1-.36-.26.374.374,0,0,1,.24-.481l3.412-1.144L21.758,10.8l-.159.01c-2.557.178-8.5,1-8.421,4.739v3.393a.963.963,0,0,0,.952.932Zm18.11,5.657a3.3,3.3,0,0,0-2.009-.735l-.058,0a3.541,3.541,0,0,0-.735.077l-4.215,1.163.293.1a2.82,2.82,0,0,1,2.124,2.634,2.433,2.433,0,0,1-.889,1.822l-.2.168h3.581a3.1,3.1,0,0,0,3.2-2.98,2.886,2.886,0,0,0-1.086-2.245Z" transform="translate(-2.217)" fill="#fff"/>
      <path id="Path_466" data-name="Path 466" d="M22.719,47.074q-.634-.151-1.384-.274l-.255-.043h0c-.024,0-.043-.01-.077-.019l-8.522-1.644a3.291,3.291,0,0,0-.4-.053.535.535,0,0,1-.082-.01l-.01,0h-.038c-.087,0-.173-.01-.255-.01a2.835,2.835,0,0,0-1.85.615,2.736,2.736,0,0,0-.928,2.192,3.251,3.251,0,0,0,3.249,3.249h9.752a6.356,6.356,0,0,0,.735-.106c1.206-.24,1.995-.98,2.019-1.9s-.75-1.706-1.947-1.995Zm1.057-6.123a4.447,4.447,0,0,1-3.691-1.735l-.077-.115-.077.115a4.4,4.4,0,0,1-3.662,1.735H14.716v1.721a.4.4,0,0,1-.13.288L12.942,44.4l8.19,2.014.087.014.029.01L27.1,44.421l-1.668-1.461a.394.394,0,0,1-.13-.288V40.95H23.776Z" transform="translate(0 -20.307)" fill="#fff"/>
    </g>
  </g>
</svg>
