<svg xmlns="http://www.w3.org/2000/svg" xmlns:xlink="http://www.w3.org/1999/xlink" width="62" height="62" viewBox="0 0 62 62">
  <defs>
    <linearGradient id="linear-gradient" x1="0.5" x2="0.5" y2="1" gradientUnits="objectBoundingBox">
      <stop offset="0" stop-color="#7746ff"/>
      <stop offset="1" stop-color="#985ffa"/>
    </linearGradient>
  </defs>
  <g id="Group_76" data-name="Group 76" transform="translate(-145 -988.357)">
    <g id="Group_44" data-name="Group 44" transform="translate(-79.322 -346.965)">
      <g id="Rectangle_27" data-name="Rectangle 27" transform="translate(224.322 1335.322)" stroke="#b285ff" stroke-width="2" fill="url(#linear-gradient)">
        <rect width="62" height="62" rx="15" stroke="none"/>
        <rect x="1" y="1" width="60" height="60" rx="14" fill="none"/>
      </g>
    </g>
    <path id="gift" d="M5.707,23.254v7.956a1.519,1.519,0,0,0,1.519,1.5H16.5V23.254Zm13.5,9.459h9.277a1.519,1.519,0,0,0,1.519-1.5V23.254H19.21ZM31.227,9.751H28.19a4.655,4.655,0,0,0,.479-2.03A4.738,4.738,0,0,0,23.931,3a6.95,6.95,0,0,0-6.075,4.242A6.95,6.95,0,0,0,11.782,3,4.738,4.738,0,0,0,7.044,7.721a4.655,4.655,0,0,0,.479,2.03H4.486C3.66,9.751,3,10.725,3,11.914V18.4c0,1.189.66,2.162,1.486,2.162H16.5V9.751H19.21V20.564H31.227c.825,0,1.486-.974,1.486-2.162V11.914c0-1.189-.66-2.162-1.486-2.162Zm-19.446,0a2.03,2.03,0,1,1,0-4.044c2.311,0,3.615,2.377,4.259,4.044Zm12.149,0H19.672c.644-1.651,1.948-4.044,4.259-4.044a2.03,2.03,0,1,1,0,4.044Z" transform="translate(158 1001.357)" fill="#fff"/>
  </g>
</svg>
