<svg xmlns="http://www.w3.org/2000/svg" xmlns:xlink="http://www.w3.org/1999/xlink" width="45" height="45" viewBox="0 0 45 45">
  <defs>
    <linearGradient id="linear-gradient" x1="0.5" x2="0.5" y2="1" gradientUnits="objectBoundingBox">
      <stop offset="0" stop-color="#7746ff"/>
      <stop offset="1" stop-color="#985ffa"/>
    </linearGradient>
  </defs>
  <path id="Trazado_51" data-name="Trazado 51" d="M35.773,9.184h2.045v2.045a2.045,2.045,0,0,0,4.091,0V9.184h2.045a2.045,2.045,0,1,0,0-4.09H41.909V3.048a2.045,2.045,0,0,0-4.091,0V5.093H35.773a2.045,2.045,0,1,0,0,4.09Zm-22.5,4.09V33.726a2.045,2.045,0,0,0,4.091,0V13.274a2.045,2.045,0,0,0-4.091,0Zm29.864,4.09a2.045,2.045,0,0,0-1.6,2.413A18.41,18.41,0,1,1,27.223,5.461a2.086,2.086,0,1,0,.818-4.09A22.093,22.093,0,0,0,23.5,1,22.5,22.5,0,1,0,46,23.5a22.086,22.086,0,0,0-.45-4.5,2.045,2.045,0,0,0-2.414-1.636Zm-21.682,0V19.41a6.135,6.135,0,0,0,1.6,4.09,6.135,6.135,0,0,0-1.6,4.09v2.045a6.136,6.136,0,0,0,6.136,6.136h2.045a6.136,6.136,0,0,0,6.136-6.136V27.59a6.135,6.135,0,0,0-1.6-4.09,6.135,6.135,0,0,0,1.6-4.09V17.364a6.136,6.136,0,0,0-6.136-6.136H27.591a6.136,6.136,0,0,0-6.136,6.136ZM31.682,29.636a2.045,2.045,0,0,1-2.045,2.045H27.591a2.045,2.045,0,0,1-2.045-2.045V27.59a2.045,2.045,0,0,1,2.045-2.045h2.045a2.045,2.045,0,0,1,2.045,2.045Zm0-12.271V19.41a2.045,2.045,0,0,1-2.045,2.045H27.591a2.045,2.045,0,0,1-2.045-2.045V17.364a2.045,2.045,0,0,1,2.045-2.045h2.045A2.045,2.045,0,0,1,31.682,17.364Z" transform="translate(-1 -0.997)" fill="url(#linear-gradient)"/>
</svg>
