<svg xmlns="http://www.w3.org/2000/svg" xmlns:xlink="http://www.w3.org/1999/xlink" width="45" height="45" viewBox="0 0 45 45">
  <defs>
    <linearGradient id="linear-gradient" x1="0.5" x2="0.5" y2="1" gradientUnits="objectBoundingBox">
      <stop offset="0" stop-color="#7746ff"/>
      <stop offset="1" stop-color="#985ffa"/>
    </linearGradient>
  </defs>
  <path id="Trazado_52" data-name="Trazado 52" d="M70.5,48A22.5,22.5,0,1,0,93,70.5,22.5,22.5,0,0,0,70.5,48ZM68.169,89.647A19.288,19.288,0,0,1,55.823,57.989,21.371,21.371,0,0,1,56.04,60.6c-.177,2.574-.431,4.185,1.075,6.356A10.489,10.489,0,0,1,58.132,70c.279.958,1.4,1.46,2.166,2.05,1.553,1.191,3.039,2.575,4.686,3.623,1.087.692,1.766,1.036,1.448,2.362a8.383,8.383,0,0,1-.879,2.674,5.421,5.421,0,0,0,.9,2.422c.811.811,1.616,1.555,2.5,2.285C70.326,86.548,68.823,88.019,68.169,89.647Zm15.968-5.509a19.148,19.148,0,0,1-10.012,5.309,8,8,0,0,1,2.368-3.176,8.058,8.058,0,0,0,2.13-2.634,18.3,18.3,0,0,1,1.469-2.511c.764-1.179-1.884-2.957-2.743-3.33a28.272,28.272,0,0,1-5.1-3.178c-1.223-.86-3.706.449-5.086-.153a26.613,26.613,0,0,1-5.093-3.5c-1.7-1.277-1.614-2.767-1.614-4.651,1.329.049,3.219-.368,4.1.7.278.337,1.235,1.843,1.876,1.308.523-.437-.388-2.19-.564-2.6C65.327,64.454,67.1,63.96,68.01,63.1c1.186-1.121,3.729-2.879,3.528-3.683s-2.545-3.08-3.921-2.725c-.206.053-2.023,1.958-2.373,2.256q.014-.932.028-1.865c.006-.392-.732-.8-.7-1.048.087-.64,1.867-1.8,2.31-2.31-.31-.194-1.369-1.1-1.69-.97-.776.323-1.652.546-2.428.87a4.94,4.94,0,0,0-.072-.772,19.1,19.1,0,0,1,4.9-1.423l1.524.612,1.076,1.277,1.074,1.107.938.3L73.7,53.323l-.384-1v-.9a19.075,19.075,0,0,1,8.169,3.224c-.436.039-.915.1-1.456.172a4.847,4.847,0,0,0-.753-.284c.706,1.519,1.443,3.017,2.192,4.516.8,1.6,2.574,3.318,2.885,5.009.367,1.992.112,3.8.313,6.145.193,2.257,2.545,4.821,2.545,4.821a5.1,5.1,0,0,0,1.989.241,19.167,19.167,0,0,1-5.059,8.876Z" transform="translate(-48 -48)" fill="url(#linear-gradient)"/>
</svg>
