<svg xmlns="http://www.w3.org/2000/svg" xmlns:xlink="http://www.w3.org/1999/xlink" width="62" height="62" viewBox="0 0 62 62">
  <defs>
    <linearGradient id="linear-gradient" x1="0.5" x2="0.5" y2="1" gradientUnits="objectBoundingBox">
      <stop offset="0" stop-color="#7746ff"/>
      <stop offset="1" stop-color="#985ffa"/>
    </linearGradient>
  </defs>
  <g id="Group_51" data-name="Group 51" transform="translate(-145 -988)">
    <g id="Group_44" data-name="Group 44" transform="translate(-79.322 -347.322)">
      <g id="Rectangle_27" data-name="Rectangle 27" transform="translate(224.322 1335.322)" stroke="#b285ff" stroke-width="2" fill="url(#linear-gradient)">
        <rect width="62" height="62" rx="15" stroke="none"/>
        <rect x="1" y="1" width="60" height="60" rx="14" fill="none"/>
      </g>
    </g>
    <g id="Layer_2" data-name="Layer 2" transform="translate(157.175 998.202)">
      <rect id="Rectangle_40" data-name="Rectangle 40" width="11.91" height="1.786" rx="0.75" transform="translate(6.907 29.681)" fill="#fff"/>
      <rect id="Rectangle_41" data-name="Rectangle 41" width="5.955" height="1.786" rx="0.75" transform="translate(6.907 25.512)" fill="#fff"/>
      <path id="Path_63" data-name="Path 63" d="M33.478,4.325l-2.168-2.2a2.573,2.573,0,0,0-3.644,0L25.391,4.348l5.955,5.86,2.239-2.239a2.382,2.382,0,0,0,.7-1.834A2.692,2.692,0,0,0,33.478,4.325ZM23.592,6.147,14.243,15.5A3.573,3.573,0,0,0,13.35,17l-.965,3.2a2.382,2.382,0,0,0,.631,2.382,2.465,2.465,0,0,0,1.739.738,2.382,2.382,0,0,0,.667-.1l3.2-.965a3.573,3.573,0,0,0,1.5-.893l9.385-9.385Z" transform="translate(2.108)" fill="#fff"/>
      <path id="Path_64" data-name="Path 64" d="M27.392,35.51H5.478A4.228,4.228,0,0,1,1.25,31.282V9.368A4.228,4.228,0,0,1,5.478,5.14H17.924a.893.893,0,0,1,.893.893h0a.893.893,0,0,1-.893.893H5.478A2.382,2.382,0,0,0,3.1,9.308V31.222A2.382,2.382,0,0,0,5.478,33.6H27.392a2.382,2.382,0,0,0,2.382-2.382V18.836a.893.893,0,0,1,.893-.893h0a.893.893,0,0,1,.893.893V31.282a4.228,4.228,0,0,1-4.169,4.228Z" transform="translate(0 0.721)" fill="#fff"/>
    </g>
  </g>
</svg>
