<svg id="Grupo_140" data-name="Grupo 140" xmlns="http://www.w3.org/2000/svg" width="34.412" height="34.415" viewBox="0 0 34.412 34.415">
  <g id="Grupo_139" data-name="Grupo 139">
    <path id="Trazado_252" data-name="Trazado 252" d="M9.026,16.764A3.87,3.87,0,1,0,12.9,20.636,3.877,3.877,0,0,0,9.026,16.764Z" transform="translate(8.18 -3.427)" fill="#f8f8f8"/>
    <path id="Trazado_253" data-name="Trazado 253" d="M17.166,14.929H5.962A2.478,2.478,0,0,0,3.49,17.407v12.1a2.478,2.478,0,0,0,2.472,2.478h11.2a2.483,2.483,0,0,0,2.48-2.478v-12.1A2.483,2.483,0,0,0,17.166,14.929ZM11.67,29.2a5.652,5.652,0,1,1,5.653-5.651A5.657,5.657,0,0,1,11.67,29.2Zm6.072-10.712a1.19,1.19,0,0,1-1.849-1,1.187,1.187,0,0,1,2.17-.665l.008.016a1.19,1.19,0,0,1-.328,1.647Z" transform="translate(5.536 -6.338)" fill="#f8f8f8"/>
    <path id="Trazado_254" data-name="Trazado 254" d="M17.206,11.607A17.207,17.207,0,1,0,34.412,28.815,17.208,17.208,0,0,0,17.206,11.607Zm9.758,23.17A4.267,4.267,0,0,1,22.7,39.036H11.5a4.263,4.263,0,0,1-4.257-4.259v-12.1A4.261,4.261,0,0,1,11.5,18.416H22.7a4.265,4.265,0,0,1,4.262,4.259Z" transform="translate(0 -11.607)" fill="#f8f8f8"/>
  </g>
</svg>
