<svg xmlns="http://www.w3.org/2000/svg" xmlns:xlink="http://www.w3.org/1999/xlink" width="26" height="26" viewBox="0 0 26 26">
  <defs>
    <linearGradient id="linear-gradient" x1="0.5" x2="0.5" y2="1" gradientUnits="objectBoundingBox">
      <stop offset="0" stop-color="#7746ff"/>
      <stop offset="1" stop-color="#985ffa"/>
    </linearGradient>
  </defs>
  <g id="Grupo_71" data-name="Grupo 71" transform="translate(-21 -22)">
    <path id="Trazado_71" data-name="Trazado 71" d="M34,22A13,13,0,1,0,47,35,13,13,0,0,0,34,22Zm9.511,19.953a14.57,14.57,0,0,0-2.721-1.24,21.307,21.307,0,0,0,.738-5.109H45.76A11.715,11.715,0,0,1,43.511,41.953ZM22.224,35.6h4.248a21.308,21.308,0,0,0,.735,5.112,14.569,14.569,0,0,0-2.721,1.24A11.715,11.715,0,0,1,22.224,35.6Zm2.264-7.558a14.569,14.569,0,0,0,2.721,1.24,21.308,21.308,0,0,0-.738,5.109H22.24a11.715,11.715,0,0,1,2.249-6.349ZM34.6,30.35a21.622,21.622,0,0,0,5-.707,19.69,19.69,0,0,1,.71,4.753H34.6Zm0-1.209V23.267c1.9.357,3.595,2.361,4.635,5.224a20.286,20.286,0,0,1-4.635.65ZM33.4,23.267v5.874a20.286,20.286,0,0,1-4.635-.65c1.04-2.863,2.73-4.867,4.635-5.224Zm0,7.083V34.4H27.681a19.69,19.69,0,0,1,.71-4.753,21.623,21.623,0,0,0,5,.707ZM27.681,35.6H33.4V39.65a21.623,21.623,0,0,0-5,.707,19.69,19.69,0,0,1-.71-4.753ZM33.4,40.859v5.874c-1.9-.357-3.595-2.361-4.635-5.224a20.286,20.286,0,0,1,4.635-.65ZM34.6,46.733V40.859a20.286,20.286,0,0,1,4.635.65C38.2,44.372,36.509,46.377,34.6,46.733Zm0-7.083V35.6h5.714a19.691,19.691,0,0,1-.71,4.753A21.622,21.622,0,0,0,34.6,39.65ZM41.528,34.4a21.308,21.308,0,0,0-.735-5.112,14.569,14.569,0,0,0,2.721-1.24A11.715,11.715,0,0,1,45.791,34.4Zm1.209-7.3a13.357,13.357,0,0,1-2.31,1.037A11.909,11.909,0,0,0,37.973,23.9a11.809,11.809,0,0,1,4.768,3.2ZM30.024,23.9a11.909,11.909,0,0,0-2.455,4.233A13.357,13.357,0,0,1,25.26,27.1,11.809,11.809,0,0,1,30.024,23.9Zm-4.765,19a13.357,13.357,0,0,1,2.31-1.037A11.909,11.909,0,0,0,30.024,46.1a11.809,11.809,0,0,1-4.765-3.2ZM37.976,46.1a11.909,11.909,0,0,0,2.455-4.233A13.356,13.356,0,0,1,42.74,42.9a11.809,11.809,0,0,1-4.765,3.2Z" transform="translate(0)" fill="url(#linear-gradient)"/>
  </g>
</svg>
