<svg xmlns="http://www.w3.org/2000/svg" xmlns:xlink="http://www.w3.org/1999/xlink" width="62" height="62" viewBox="0 0 62 62">
  <defs>
    <linearGradient id="linear-gradient" x1="0.5" x2="0.5" y2="1" gradientUnits="objectBoundingBox">
      <stop offset="0" stop-color="#7746ff"/>
      <stop offset="1" stop-color="#985ffa"/>
    </linearGradient>
  </defs>
  <g id="Group_348" data-name="Group 348" transform="translate(-145 -4030)">
    <g id="Group_85" data-name="Group 85" transform="translate(0 3042)">
      <g id="Group_44" data-name="Group 44" transform="translate(-79.322 -347.322)">
        <g id="Rectangle_27" data-name="Rectangle 27" transform="translate(224.322 1335.322)" stroke="#b285ff" stroke-width="2" fill="url(#linear-gradient)">
          <rect width="62" height="62" rx="15" stroke="none"/>
          <rect x="1" y="1" width="60" height="60" rx="14" fill="none"/>
        </g>
      </g>
    </g>
    <g id="Group_176" data-name="Group 176" transform="translate(157.39 4042.052)">
      <path id="Path_300" data-name="Path 300" d="M14.032,6.785H5.008a1.258,1.258,0,1,1,0-2.517h9.024a3.775,3.775,0,0,1,7.121,0h9.024a1.258,1.258,0,0,1,0,2.517H21.153a3.785,3.785,0,0,1-2.3,2.3v20.35H26.4a3.356,3.356,0,0,1,0,6.712H8.784a3.356,3.356,0,0,1,0-6.712h7.551V9.087a3.785,3.785,0,0,1-2.3-2.3Zm2.3-1.258a1.258,1.258,0,1,1,1.258,1.258A1.258,1.258,0,0,1,16.334,5.527ZM8.784,31.954a.839.839,0,1,0,0,1.678H26.4a.839.839,0,1,0,0-1.678Z" transform="translate(1.017)" fill="#fbfbfb" fill-rule="evenodd"/>
      <path id="Path_301" data-name="Path 301" d="M2.25,16.576A17.486,17.486,0,0,1,4.27,9.722a16.459,16.459,0,0,1,1.8-2.9A5.978,5.978,0,0,1,7.087,5.8,2.455,2.455,0,0,1,8.542,5.25,2.455,2.455,0,0,1,10,5.8a5.918,5.918,0,0,1,1.018,1.02,16.459,16.459,0,0,1,1.8,2.9,17.485,17.485,0,0,1,2.02,6.854,6.292,6.292,0,1,1-12.584,0Zm2.661-1.258a18.8,18.8,0,0,1,1.611-4.472A14.152,14.152,0,0,1,8.027,8.4a3.9,3.9,0,0,1,.515-.544,3.839,3.839,0,0,1,.515.545,13.963,13.963,0,0,1,1.505,2.445,18.778,18.778,0,0,1,1.611,4.472ZM12.1,17.834a3.775,3.775,0,0,1-7.121,0ZM8.707,7.74l-.005,0Zm-.324,0-.005,0ZM24.407,9.722a17.433,17.433,0,0,0-2.022,6.854,6.292,6.292,0,1,0,12.584,0,17.486,17.486,0,0,0-2.02-6.854,16.459,16.459,0,0,0-1.8-2.9A6,6,0,0,0,30.132,5.8a2.2,2.2,0,0,0-2.91,0A6,6,0,0,0,26.2,6.819a16.459,16.459,0,0,0-1.8,2.9Zm2.248,1.124a19,19,0,0,0-1.611,4.472H32.31A19.027,19.027,0,0,0,30.7,10.846,14.251,14.251,0,0,0,29.192,8.4a3.948,3.948,0,0,0-.515-.542,3.839,3.839,0,0,0-.515.545,13.963,13.963,0,0,0-1.505,2.445Zm2.022,9.505a3.776,3.776,0,0,0,3.561-2.517H25.117A3.777,3.777,0,0,0,28.677,20.351ZM28.842,7.74l-.005,0Zm-.324,0-.005,0Z" transform="translate(0 2.374)" fill="#fbfbfb" fill-rule="evenodd"/>
    </g>
  </g>
</svg>
