<svg xmlns="http://www.w3.org/2000/svg" xmlns:xlink="http://www.w3.org/1999/xlink" width="62" height="62" viewBox="0 0 62 62">
  <defs>
    <linearGradient id="linear-gradient" x1="0.5" x2="0.5" y2="1" gradientUnits="objectBoundingBox">
      <stop offset="0" stop-color="#7746ff"/>
      <stop offset="1" stop-color="#985ffa"/>
    </linearGradient>
  </defs>
  <g id="Grupo_46" data-name="Grupo 46" transform="translate(-145 -988)">
    <g id="Grupo_44" data-name="Grupo 44" transform="translate(-79.322 -347.322)">
      <g id="Trazado_463" data-name="Trazado 463" transform="translate(224.322 1335.322)" fill="url(#linear-gradient)">
        <path d="M 47 61 L 15 61 C 11.26047039031982 61 7.744760036468506 59.54375076293945 5.100510120391846 56.89949035644531 C 2.456249952316284 54.25524139404297 1 50.73952865600586 1 47 L 1 15 C 1 11.26047039031982 2.456249952316284 7.744760036468506 5.100510120391846 5.100510120391846 C 7.744760036468506 2.456249952316284 11.26047039031982 1 15 1 L 47 1 C 50.73952865600586 1 54.25524139404297 2.456249952316284 56.89949035644531 5.100510120391846 C 59.54375076293945 7.744760036468506 61 11.26047039031982 61 15 L 61 47 C 61 50.73952865600586 59.54375076293945 54.25524139404297 56.89949035644531 56.89949035644531 C 54.25524139404297 59.54375076293945 50.73952865600586 61 47 61 Z" stroke="none"/>
        <path d="M 15 2 C 11.52756881713867 2 8.262989044189453 3.352241516113281 5.807609558105469 5.807609558105469 C 3.352241516113281 8.262989044189453 2 11.52756881713867 2 15 L 2 47 C 2 50.47243118286133 3.352241516113281 53.73701095581055 5.807609558105469 56.19239044189453 C 8.262989044189453 58.64775848388672 11.52756881713867 60 15 60 L 47 60 C 50.47243118286133 60 53.73701095581055 58.64775848388672 56.19239044189453 56.19239044189453 C 58.64775848388672 53.73701095581055 60 50.47243118286133 60 47 L 60 15 C 60 11.52756881713867 58.64775848388672 8.262989044189453 56.19239044189453 5.807609558105469 C 53.73701095581055 3.352241516113281 50.47243118286133 2 47 2 L 15 2 M 15 0 L 47 0 C 55.28427124023438 0 62 6.715728759765625 62 15 L 62 47 C 62 55.28427124023438 55.28427124023438 62 47 62 L 15 62 C 6.715728759765625 62 0 55.28427124023438 0 47 L 0 15 C 0 6.715728759765625 6.715728759765625 0 15 0 Z" stroke="none" fill="#b285ff"/>
      </g>
    </g>
    <g id="Layer_2" data-name="Layer 2" transform="translate(156.258 999.258)">
      <g id="checkmark-circle">
        <rect id="Rectángulo_28" data-name="Rectángulo 28" width="40" height="40" transform="translate(-0.258 -0.258)" fill="#fff" opacity="0"/>
        <path id="Trazado_58" data-name="Trazado 58" d="M10.816,14.682A1.652,1.652,0,0,0,8.48,17.018l4.936,4.936a1.6,1.6,0,0,0,2.353-.082L27.284,8.71a1.645,1.645,0,0,0-2.468-2.172L14.583,18.384Z" transform="translate(5.159 3.892)" fill="#fff"/>
        <path id="Trazado_59" data-name="Trazado 59" d="M33.225,16.807a1.645,1.645,0,0,0-1.645,1.645A13.157,13.157,0,1,1,18.418,5.29a14.461,14.461,0,0,1,3.126.362,1.645,1.645,0,1,0,.773-3.192A17.34,17.34,0,0,0,18.419,2,16.452,16.452,0,1,0,34.87,18.452a1.645,1.645,0,0,0-1.645-1.645Z" transform="translate(1.324 1.29)" fill="#fff"/>
      </g>
    </g>
  </g>
</svg>
