<svg xmlns="http://www.w3.org/2000/svg" xmlns:xlink="http://www.w3.org/1999/xlink" width="27" height="27" viewBox="0 0 27 27">
  <defs>
    <linearGradient id="linear-gradient" x1="0.5" x2="0.5" y2="1" gradientUnits="objectBoundingBox">
      <stop offset="0" stop-color="#fed773"/>
      <stop offset="1" stop-color="#fdbe18"/>
    </linearGradient>
  </defs>
  <path id="gift" d="M5.46,21.4v7.23A1.38,1.38,0,0,0,6.84,30h8.43V21.4ZM17.73,30h8.43a1.38,1.38,0,0,0,1.38-1.365V21.4H17.73ZM28.65,9.135H25.89a4.23,4.23,0,0,0,.435-1.845A4.305,4.305,0,0,0,22.02,3,6.315,6.315,0,0,0,16.5,6.855,6.315,6.315,0,0,0,10.98,3a4.305,4.305,0,0,0-4.3,4.29A4.23,4.23,0,0,0,7.11,9.135H4.35C3.6,9.135,3,10.02,3,11.1v5.895c0,1.08.6,1.965,1.35,1.965H15.27V9.135h2.46V18.96H28.65c.75,0,1.35-.885,1.35-1.965V11.1c0-1.08-.6-1.965-1.35-1.965Zm-17.67,0a1.845,1.845,0,1,1,0-3.675c2.1,0,3.285,2.16,3.87,3.675Zm11.04,0H18.15c.585-1.5,1.77-3.675,3.87-3.675a1.845,1.845,0,1,1,0,3.675Z" transform="translate(-3 -3)" fill="url(#linear-gradient)"/>
</svg>
