<svg id="Layer_2" data-name="Layer 2" xmlns="http://www.w3.org/2000/svg" xmlns:xlink="http://www.w3.org/1999/xlink" width="30" height="29.758" viewBox="0 0 30 29.758">
  <defs>
    <linearGradient id="linear-gradient" x1="0.5" x2="0.5" y2="1" gradientUnits="objectBoundingBox">
      <stop offset="0" stop-color="#fed773"/>
      <stop offset="1" stop-color="#fdbe18"/>
    </linearGradient>
  </defs>
  <rect id="Rect치ngulo_40" data-name="Rect치ngulo 40" width="10.165" height="1.525" rx="0.75" transform="translate(4.828 24.167)" fill="url(#linear-gradient)"/>
  <rect id="Rect치ngulo_41" data-name="Rect치ngulo 41" width="5.082" height="1.525" rx="0.75" transform="translate(4.828 20.61)" fill="url(#linear-gradient)"/>
  <path id="Trazado_63" data-name="Trazado 63" d="M30.373,3.891l-1.85-1.88a2.2,2.2,0,0,0-3.11,0l-1.941,1.9,5.082,5L30.465,7a2.033,2.033,0,0,0,.6-1.565A2.3,2.3,0,0,0,30.373,3.891ZM21.936,5.446l-7.979,7.979a3.049,3.049,0,0,0-.762,1.281l-.823,2.734a2.033,2.033,0,0,0,.539,2.033,2.1,2.1,0,0,0,1.484.63,2.033,2.033,0,0,0,.569-.081L17.7,19.2a3.049,3.049,0,0,0,1.281-.762l8.01-8.01Z" transform="translate(-1.068 -1.365)" fill="url(#linear-gradient)"/>
  <path id="Trazado_64" data-name="Trazado 64" d="M23.562,31.06H4.859A3.609,3.609,0,0,1,1.25,27.452V8.749A3.609,3.609,0,0,1,4.859,5.14H15.481a.762.762,0,0,1,.762.762h0a.762.762,0,0,1-.762.762H4.859A2.033,2.033,0,0,0,2.826,8.7V27.4a2.033,2.033,0,0,0,2.033,2.033h18.7A2.033,2.033,0,0,0,25.595,27.4V16.83a.762.762,0,0,1,.762-.762h0a.762.762,0,0,1,.762.762V27.452a3.609,3.609,0,0,1-3.558,3.609Z" transform="translate(-1.25 -1.302)" fill="url(#linear-gradient)"/>
</svg>
