<svg xmlns="http://www.w3.org/2000/svg" xmlns:xlink="http://www.w3.org/1999/xlink" width="338.672" height="103.19" viewBox="0 0 338.672 103.19">
  <defs>
    <linearGradient id="linear-gradient" y1="0.5" x2="1" y2="0.5" gradientUnits="objectBoundingBox">
      <stop offset="0" stop-color="#efd98b"/>
      <stop offset="0.549" stop-color="#edbc00"/>
      <stop offset="1" stop-color="#c6931a"/>
    </linearGradient>
    <linearGradient id="linear-gradient-6" x1="-0.518" y1="0.808" x2="1.518" y2="0.164" xlink:href="#linear-gradient"/>
    <linearGradient id="linear-gradient-7" x1="67.153" y1="24.101" x2="74.474" y2="23.567" xlink:href="#linear-gradient"/>
  </defs>
  <g id="Grupo_298" data-name="Grupo 298" transform="translate(-295.738 -5624.941)">
    <g id="Grupo_111" data-name="Grupo 111" transform="translate(295.738 5624.941)">
      <g id="Grupo_104" data-name="Grupo 104" transform="translate(122.813 11.896)">
        <g id="Grupo_103" data-name="Grupo 103">
          <path id="Trazado_117" data-name="Trazado 117" d="M602.349,220.18h-7.375v-5.366h20.363v5.366h-7.375v28.435h-5.613Z" transform="translate(-594.974 -214.198)" fill="#fff"/>
          <path id="Trazado_118" data-name="Trazado 118" d="M664.386,230.456a17.487,17.487,0,1,1,34.907,1.475H669.917a11.775,11.775,0,0,0,11.964,10.694,11.461,11.461,0,0,0,10.652-7.047h6.1a17.511,17.511,0,0,1-34.251-5.122Zm28.966-3.442a11.86,11.86,0,0,0-22.943,0Z" transform="translate(-641.806 -212.921)" fill="#fff"/>
          <path id="Trazado_119" data-name="Trazado 119" d="M779.9,242.859c3.237,0,5.162-1.8,5.162-5.45V224.954c0-6.925,4.466-10.858,10.817-10.9v5.613c-3.278,0-5.2,1.8-5.2,5.368v12.373c0,6.923-4.466,11.062-10.776,11.062Z" transform="translate(-719.741 -213.686)" fill="#fff"/>
          <path id="Trazado_120" data-name="Trazado 120" d="M855.887,247.952a17.515,17.515,0,1,1,17.494-17.535A17.4,17.4,0,0,1,855.887,247.952Zm0-29.418a11.9,11.9,0,1,0,11.881,11.882A11.77,11.77,0,0,0,855.887,218.534Z" transform="translate(-759.179 -212.921)" fill="#fff"/>
          <path id="Trazado_121" data-name="Trazado 121" d="M982.537,248.7l-3.933-8.236a22.61,22.61,0,0,1-3.482.287h-2.54v7.988h-5.613v-33.8h7.456c10.611,0,14.5,6.187,14.5,12.905,0,4.261-1.639,8.317-5.326,10.694l5.654,10.162Zm-7.251-13.4c5.326,0,8.153-3.033,8.153-7.458,0-4.588-2.909-7.416-8.153-7.416h-2.7V235.3Z" transform="translate(-845.956 -214.281)" fill="#fff"/>
          <path id="Trazado_122" data-name="Trazado 122" d="M1069.152,247.952a17.515,17.515,0,1,1,17.5-17.535A17.4,17.4,0,0,1,1069.152,247.952Zm0-29.418a11.9,11.9,0,1,0,11.882,11.882A11.771,11.771,0,0,0,1069.152,218.534Z" transform="translate(-903.067 -212.921)" fill="#fff"/>
          <path id="Trazado_123" data-name="Trazado 123" d="M1167.266,242.859c3.236,0,5.162-1.8,5.162-5.45V224.954c0-6.925,4.465-10.858,10.816-10.9v5.613c-3.278,0-5.2,1.8-5.2,5.368v12.373c0,6.923-4.465,11.062-10.774,11.062Z" transform="translate(-981.094 -213.686)" fill="#fff"/>
          <path id="Trazado_124" data-name="Trazado 124" d="M610.883,365.667l-9.312,22.667a1.569,1.569,0,0,1-.555.773,1.364,1.364,0,0,1-.833.3,1.384,1.384,0,0,1-1.109-.415,1.629,1.629,0,0,1-.4-.971,2.415,2.415,0,0,1,.08-.595L609.021,362.5a1.84,1.84,0,0,1,.654-.833,1.437,1.437,0,0,1,.931-.237,1.646,1.646,0,0,1,.931.277,1.425,1.425,0,0,1,.574.793l10.224,24.686a1.812,1.812,0,0,1,.119.635,1.482,1.482,0,0,1-.476,1.148,1.536,1.536,0,0,1-1.069.436,1.476,1.476,0,0,1-.912-.3,1.778,1.778,0,0,1-.593-.813l-9.432-22.667Zm-7.331,16.208,1.347-3.092h11.769l.595,3.092Z" transform="translate(-597.473 -313.113)" fill="#fff"/>
          <path id="Trazado_125" data-name="Trazado 125" d="M690.891,403.513a1.5,1.5,0,0,1-1.129-.475,1.6,1.6,0,0,1-.455-1.149V384.652a1.582,1.582,0,0,1,.455-1.17,1.534,1.534,0,0,1,1.129-.455,1.518,1.518,0,0,1,1.149.455,1.625,1.625,0,0,1,.436,1.17v5.191l-.476-.832a8.671,8.671,0,0,1,.853-2.4,8.367,8.367,0,0,1,1.565-2.1,7.227,7.227,0,0,1,2.18-1.467,6.687,6.687,0,0,1,2.694-.534,3.2,3.2,0,0,1,1.6.415,1.288,1.288,0,0,1,.733,1.169,1.648,1.648,0,0,1-.435,1.249,1.4,1.4,0,0,1-.991.417,2.182,2.182,0,0,1-.99-.238,2.647,2.647,0,0,0-1.189-.237,3.927,3.927,0,0,0-1.962.555,6.587,6.587,0,0,0-1.783,1.526,8.053,8.053,0,0,0-1.308,2.219,7.186,7.186,0,0,0-.5,2.675v9.629a1.6,1.6,0,0,1-.455,1.149A1.506,1.506,0,0,1,690.891,403.513Z" transform="translate(-658.62 -327.342)" fill="#fff"/>
          <path id="Trazado_126" data-name="Trazado 126" d="M748.426,382.512a8.726,8.726,0,0,1,3.21.574,9.181,9.181,0,0,1,2.557,1.486,8.069,8.069,0,0,1,1.7,1.9,3.571,3.571,0,0,1,.614,1.861l-.792-.475v-3.448a1.558,1.558,0,0,1,1.584-1.585,1.583,1.583,0,0,1,1.17.457,1.534,1.534,0,0,1,.455,1.129V401.77a9.932,9.932,0,0,1-1.367,5.409,8.382,8.382,0,0,1-3.666,3.209,12.252,12.252,0,0,1-5.151,1.05,12.98,12.98,0,0,1-2.616-.3,14.547,14.547,0,0,1-2.536-.753,3.175,3.175,0,0,1-1.427-.931,1.823,1.823,0,0,1-.732-.911,1.174,1.174,0,0,1,.138-.952,1.15,1.15,0,0,1,.952-.555,3.969,3.969,0,0,1,1.427.358c.263.079.654.21,1.169.4a14.882,14.882,0,0,0,1.744.5,8.8,8.8,0,0,0,1.922.218,7.022,7.022,0,0,0,5.151-1.763,6.257,6.257,0,0,0,1.784-4.656V398.4l.435.2a5.2,5.2,0,0,1-.951,2.06,7.641,7.641,0,0,1-1.764,1.685,8.841,8.841,0,0,1-2.318,1.149,8.343,8.343,0,0,1-2.616.415,9.127,9.127,0,0,1-4.973-1.387,9.881,9.881,0,0,1-3.487-3.8,12.5,12.5,0,0,1,0-11.056,9.8,9.8,0,0,1,3.467-3.785A9.056,9.056,0,0,1,748.426,382.512Zm.436,2.932a6.668,6.668,0,0,0-3.626,1.01,6.88,6.88,0,0,0-2.5,2.775,9.254,9.254,0,0,0,0,7.925,7.009,7.009,0,0,0,2.5,2.793,6.564,6.564,0,0,0,3.626,1.031,6.633,6.633,0,0,0,3.645-1.01,7.1,7.1,0,0,0,2.5-2.754,8.53,8.53,0,0,0,.911-4,8.648,8.648,0,0,0-.911-4.022,6.924,6.924,0,0,0-2.5-2.754A6.73,6.73,0,0,0,748.862,385.444Z" transform="translate(-691.983 -327.342)" fill="#fff"/>
          <path id="Trazado_127" data-name="Trazado 127" d="M829.371,403.909a11.143,11.143,0,0,1-5.587-1.347,9.456,9.456,0,0,1-3.685-3.7,11.048,11.048,0,0,1-1.308-5.449,11.847,11.847,0,0,1,1.367-5.885,9.689,9.689,0,0,1,3.567-3.725,9.073,9.073,0,0,1,4.655-1.287,9.513,9.513,0,0,1,3.527.673,8.774,8.774,0,0,1,3.012,1.981,10.156,10.156,0,0,1,2.1,3.091,10.29,10.29,0,0,1,.832,4.041,1.341,1.341,0,0,1-.475,1.051,1.636,1.636,0,0,1-1.111.415H820.614l-.713-2.735h15.217l-.635.556v-.872a4.945,4.945,0,0,0-1.05-2.794,6.437,6.437,0,0,0-5.053-2.437,6.687,6.687,0,0,0-2.358.436,5.942,5.942,0,0,0-2.1,1.347,6.671,6.671,0,0,0-1.506,2.377,9.68,9.68,0,0,0-.575,3.527,8.454,8.454,0,0,0,.931,4.043,7.036,7.036,0,0,0,2.6,2.754,8.12,8.12,0,0,0,6.3.654,6.7,6.7,0,0,0,1.763-.892,8.677,8.677,0,0,0,1.249-1.089,1.791,1.791,0,0,1,1.029-.357,1.352,1.352,0,0,1,1.348,1.348,1.617,1.617,0,0,1-.635,1.228,10.141,10.141,0,0,1-3.032,2.14A9.106,9.106,0,0,1,829.371,403.909Z" transform="translate(-745.981 -327.342)" fill="#fff"/>
          <path id="Trazado_128" data-name="Trazado 128" d="M908.03,382.512a7.151,7.151,0,0,1,4.24,1.109,6.006,6.006,0,0,1,2.2,2.972,12.619,12.619,0,0,1,.654,4.2v11.1a1.6,1.6,0,0,1-.455,1.149,1.506,1.506,0,0,1-1.13.475,1.484,1.484,0,0,1-1.148-.475,1.636,1.636,0,0,1-.436-1.149V390.873a7.8,7.8,0,0,0-.456-2.735,4.015,4.015,0,0,0-1.525-1.962,4.979,4.979,0,0,0-2.853-.733,6.44,6.44,0,0,0-3.052.733,6.027,6.027,0,0,0-2.219,1.962,4.768,4.768,0,0,0-.832,2.735v11.016a1.6,1.6,0,0,1-.457,1.149,1.581,1.581,0,0,1-2.259,0,1.605,1.605,0,0,1-.455-1.149V384.652a1.588,1.588,0,0,1,.455-1.17,1.654,1.654,0,0,1,2.279,0,1.626,1.626,0,0,1,.436,1.17v2.773l-.793.872a5.586,5.586,0,0,1,.912-2.081,8.264,8.264,0,0,1,1.783-1.882,9.115,9.115,0,0,1,2.377-1.328A7.659,7.659,0,0,1,908.03,382.512Z" transform="translate(-799.319 -327.342)" fill="#fff"/>
          <path id="Trazado_129" data-name="Trazado 129" d="M969.274,373.281h9.312a1.392,1.392,0,0,1,1.05.436,1.493,1.493,0,0,1,.417,1.071,1.375,1.375,0,0,1-.417,1.01,1.424,1.424,0,0,1-1.05.415h-9.312a1.474,1.474,0,0,1-1.05-.435,1.379,1.379,0,0,1-.455-1.031,1.358,1.358,0,0,1,.455-1.05A1.511,1.511,0,0,1,969.274,373.281Zm4.16-5.389a1.442,1.442,0,0,1,1.11.476,1.644,1.644,0,0,1,.436,1.149v19.1a2.891,2.891,0,0,0,.277,1.427,1.463,1.463,0,0,0,.733.654,2.437,2.437,0,0,0,.891.178,1.619,1.619,0,0,0,.694-.139,1.628,1.628,0,0,1,.693-.138.98.98,0,0,1,.734.377,1.387,1.387,0,0,1-.5,2.179,3.561,3.561,0,0,1-1.863.5c-.37,0-.827-.026-1.367-.078a4.135,4.135,0,0,1-1.6-.516,3.385,3.385,0,0,1-1.327-1.446,6.133,6.133,0,0,1-.536-2.833V369.517a1.626,1.626,0,0,1,1.624-1.625Z" transform="translate(-846.495 -317.479)" fill="#fff"/>
          <path id="Trazado_130" data-name="Trazado 130" d="M1025.25,367.069a2.255,2.255,0,0,1-1.465-.4,1.509,1.509,0,0,1-.476-1.229v-.555a1.453,1.453,0,0,1,.515-1.228,2.369,2.369,0,0,1,1.467-.4,2.2,2.2,0,0,1,1.426.4,1.507,1.507,0,0,1,.475,1.228v.555a1.479,1.479,0,0,1-.5,1.229A2.269,2.269,0,0,1,1025.25,367.069Zm1.625,21.834a1.6,1.6,0,0,1-.457,1.149,1.5,1.5,0,0,1-1.129.475,1.548,1.548,0,0,1-1.169-.475,1.6,1.6,0,0,1-.456-1.149V371.349a1.6,1.6,0,0,1,.456-1.149,1.545,1.545,0,0,1,1.169-.476,1.5,1.5,0,0,1,1.129.476,1.6,1.6,0,0,1,.457,1.149Z" transform="translate(-883.968 -314.357)" fill="#fff"/>
          <path id="Trazado_131" data-name="Trazado 131" d="M1067.844,382.512a7.152,7.152,0,0,1,4.24,1.109,6.007,6.007,0,0,1,2.2,2.972,12.632,12.632,0,0,1,.654,4.2v11.1a1.6,1.6,0,0,1-.455,1.149,1.505,1.505,0,0,1-1.13.475,1.486,1.486,0,0,1-1.148-.475,1.638,1.638,0,0,1-.436-1.149V390.873a7.793,7.793,0,0,0-.457-2.735,4.007,4.007,0,0,0-1.525-1.962,4.976,4.976,0,0,0-2.853-.733,6.444,6.444,0,0,0-3.052.733,6.028,6.028,0,0,0-2.219,1.962,4.768,4.768,0,0,0-.832,2.735v11.016a1.6,1.6,0,0,1-.455,1.149,1.581,1.581,0,0,1-2.259,0,1.6,1.6,0,0,1-.457-1.149V384.652a1.583,1.583,0,0,1,.457-1.17,1.652,1.652,0,0,1,2.278,0,1.626,1.626,0,0,1,.436,1.17v2.773l-.793.872a5.6,5.6,0,0,1,.912-2.081,8.288,8.288,0,0,1,1.783-1.882,9.1,9.1,0,0,1,2.379-1.328A7.647,7.647,0,0,1,1067.844,382.512Z" transform="translate(-907.144 -327.342)" fill="#fff"/>
          <path id="Trazado_132" data-name="Trazado 132" d="M1151.8,393.21a10.989,10.989,0,0,1-1.367,5.508,10.184,10.184,0,0,1-3.685,3.8,9.952,9.952,0,0,1-5.211,1.387,10.059,10.059,0,0,1-8.935-5.191,11.778,11.778,0,0,1,0-11.016,10.057,10.057,0,0,1,8.935-5.191,9.952,9.952,0,0,1,5.211,1.386,10.2,10.2,0,0,1,3.685,3.8A10.988,10.988,0,0,1,1151.8,393.21Zm-3.21,0a8.344,8.344,0,0,0-.93-4.022,7.238,7.238,0,0,0-2.537-2.735,6.594,6.594,0,0,0-3.586-1.01,6.67,6.67,0,0,0-3.626,1.01,7.4,7.4,0,0,0-2.555,2.735,8.94,8.94,0,0,0,0,8.024,7.343,7.343,0,0,0,2.555,2.754,6.667,6.667,0,0,0,3.626,1.01,6.591,6.591,0,0,0,3.586-1.01,7.19,7.19,0,0,0,2.537-2.754A8.372,8.372,0,0,0,1148.587,393.21Z" transform="translate(-956.782 -327.342)" fill="#fff"/>
          <path id="Trazado_133" data-name="Trazado 133" d="M1210.645,400.264a1.912,1.912,0,0,1-.3-1.09,1.291,1.291,0,0,1,.654-1.01,1.555,1.555,0,0,1,.971-.237,1.445,1.445,0,0,1,.97.515,8.816,8.816,0,0,0,2.537,2.081,7.241,7.241,0,0,0,3.487.773,8.056,8.056,0,0,0,1.882-.317,3.508,3.508,0,0,0,1.625-.97,2.577,2.577,0,0,0,.653-1.843,2.346,2.346,0,0,0-.673-1.764,5.112,5.112,0,0,0-1.763-1.069,21.734,21.734,0,0,0-2.318-.734q-1.307-.356-2.576-.792a9.375,9.375,0,0,1-2.278-1.13,5.4,5.4,0,0,1-1.625-1.743,5.574,5.574,0,0,1,.357-5.687,6.307,6.307,0,0,1,2.6-2.02,8.87,8.87,0,0,1,3.607-.713,11.125,11.125,0,0,1,2.318.257,9,9,0,0,1,2.357.872,6.639,6.639,0,0,1,2.021,1.685,1.585,1.585,0,0,1,.4.991,1.267,1.267,0,0,1-.515,1.069,1.514,1.514,0,0,1-.971.3,1.282,1.282,0,0,1-.891-.377,5.662,5.662,0,0,0-2.119-1.566,6.927,6.927,0,0,0-2.754-.534,5.816,5.816,0,0,0-1.823.3,3.669,3.669,0,0,0-1.526.931,2.455,2.455,0,0,0-.614,1.783,2.491,2.491,0,0,0,.713,1.744,4.875,4.875,0,0,0,1.823,1.09q1.147.416,2.536.813,1.267.317,2.436.733a8.711,8.711,0,0,1,2.121,1.09,4.879,4.879,0,0,1,1.505,1.723,5.6,5.6,0,0,1,.555,2.635,4.983,4.983,0,0,1-1.031,3.15,6.461,6.461,0,0,1-2.714,2.021,9.442,9.442,0,0,1-3.626.693,12.111,12.111,0,0,1-4.319-.811A8.334,8.334,0,0,1,1210.645,400.264Z" transform="translate(-1010.159 -327.342)" fill="#fff"/>
        </g>
      </g>
      <g id="Grupo_107" data-name="Grupo 107">
        <g id="Grupo_106" data-name="Grupo 106">
          <g id="Grupo_105" data-name="Grupo 105">
            <path id="Trazado_134" data-name="Trazado 134" d="M226.282,204.258c.008,0,.015,0,.023,0a17.74,17.74,0,0,1,17.587-15.7c13.407,0,16.164,11.179,17.644,17.184,1.844,7.479,4.108,13.668,13.16,13.668a13.113,13.113,0,0,0,0-26.226,12.962,12.962,0,0,0-9.49,4.082,2.312,2.312,0,0,1-3.35-3.186,17.545,17.545,0,0,1,12.84-5.521,17.74,17.74,0,0,1,17.587,15.7h29.484V196.13a19.776,19.776,0,0,0-19.776-19.776H261.336v10.831c0,.761-.914,1.377-2.043,1.377s-2.043-.616-2.043-1.377V176.354H237.223a19.776,19.776,0,0,0-19.776,19.776v8.128Zm42.822,6.568,4.443-10.723a1.336,1.336,0,0,1,2.47,0l4.428,10.692a1.3,1.3,0,0,1,0,1.024,1.336,1.336,0,0,1-2.47,0l-3.191-7.708-3.206,7.738a1.339,1.339,0,0,1-2.474-1.024Z" transform="translate(-217.447 -176.354)" fill="url(#linear-gradient)"/>
            <path id="Trazado_135" data-name="Trazado 135" d="M292.282,243.257a17.74,17.74,0,0,1-17.587,15.7c-13.407,0-16.164-11.179-17.643-17.184-1.844-7.478-4.108-13.668-13.16-13.668a13.113,13.113,0,0,0,0,26.226,12.977,12.977,0,0,0,9.493-4.082,2.31,2.31,0,1,1,3.346,3.186,17.54,17.54,0,0,1-12.84,5.521,17.74,17.74,0,0,1-17.587-15.7c-.008,0-.015,0-.023,0h-8.835v51.424a19.776,19.776,0,0,0,19.776,19.776h20.028V260.565a2.1,2.1,0,0,1,4.086,0v53.892h40.654a19.776,19.776,0,0,0,19.776-19.776V243.257Zm-42.8-6.568-4.443,10.723a1.336,1.336,0,0,1-2.47,0l-4.428-10.692a1.34,1.34,0,0,1,.722-1.749,1.339,1.339,0,0,1,1.749.724l3.2,7.708,3.2-7.738a1.339,1.339,0,0,1,2.474,1.024Z" transform="translate(-217.447 -211.267)" fill="url(#linear-gradient)"/>
          </g>
        </g>
      </g>
      <g id="Grupo_110" data-name="Grupo 110">
        <g id="Grupo_108" data-name="Grupo 108">
          <path id="Trazado_136" data-name="Trazado 136" d="M226.282,204.258c.008,0,.015,0,.023,0a17.74,17.74,0,0,1,17.587-15.7c13.407,0,16.164,11.179,17.644,17.184,1.844,7.479,4.108,13.668,13.16,13.668a13.113,13.113,0,0,0,0-26.226,12.962,12.962,0,0,0-9.49,4.082,2.312,2.312,0,0,1-3.35-3.186,17.545,17.545,0,0,1,12.84-5.521,17.74,17.74,0,0,1,17.587,15.7h29.484V196.13a19.776,19.776,0,0,0-19.776-19.776H261.336v10.831c0,.761-.914,1.377-2.043,1.377s-2.043-.616-2.043-1.377V176.354H237.223a19.776,19.776,0,0,0-19.776,19.776v8.128Zm42.822,6.568,4.443-10.723a1.336,1.336,0,0,1,2.47,0l4.428,10.692a1.3,1.3,0,0,1,0,1.024,1.336,1.336,0,0,1-2.47,0l-3.191-7.708-3.206,7.738a1.339,1.339,0,0,1-2.474-1.024Z" transform="translate(-217.447 -176.354)" fill="#fff"/>
          <path id="Trazado_137" data-name="Trazado 137" d="M292.282,243.257a17.74,17.74,0,0,1-17.587,15.7c-13.407,0-16.164-11.179-17.643-17.184-1.844-7.478-4.108-13.668-13.16-13.668a13.113,13.113,0,0,0,0,26.226,12.977,12.977,0,0,0,9.493-4.082,2.31,2.31,0,1,1,3.346,3.186,17.54,17.54,0,0,1-12.84,5.521,17.74,17.74,0,0,1-17.587-15.7c-.008,0-.015,0-.023,0h-8.835v51.424a19.776,19.776,0,0,0,19.776,19.776h20.028V260.565a2.1,2.1,0,0,1,4.086,0v53.892h40.654a19.776,19.776,0,0,0,19.776-19.776V243.257Zm-42.8-6.568-4.443,10.723a1.336,1.336,0,0,1-2.47,0l-4.428-10.692a1.34,1.34,0,0,1,.722-1.749,1.339,1.339,0,0,1,1.749.724l3.2,7.708,3.2-7.738a1.339,1.339,0,0,1,2.474,1.024Z" transform="translate(-217.447 -211.267)" fill="#fff"/>
        </g>
        <g id="Grupo_109" data-name="Grupo 109" transform="translate(0 12.192)">
          <path id="Trazado_138" data-name="Trazado 138" d="M291.4,248.9a1.341,1.341,0,0,0-1.75.725l-3.208,7.745-3.2-7.714a1.339,1.339,0,0,0-2.475,1.025l4.433,10.7a1.339,1.339,0,0,0,2.475,0l4.446-10.732a1.341,1.341,0,0,0-.725-1.75Z" transform="translate(-260.099 -237.42)" fill="url(#linear-gradient)"/>
          <path id="Trazado_139" data-name="Trazado 139" d="M376.757,260.11a1.34,1.34,0,0,0,1.75-.725l3.208-7.745,3.2,7.714a1.339,1.339,0,0,0,2.475-1.025l-4.433-10.7a1.339,1.339,0,0,0-2.475,0l-4.446,10.733a1.34,1.34,0,0,0,.725,1.75Z" transform="translate(-324.374 -236.076)" fill="url(#linear-gradient)"/>
          <path id="Trazado_140" data-name="Trazado 140" d="M321.766,229.545H292.305a17.757,17.757,0,0,0-17.6-15.712,17.559,17.559,0,0,0-12.853,5.526,2.313,2.313,0,0,0,3.352,3.189,12.979,12.979,0,0,1,9.5-4.086,13.125,13.125,0,0,1,0,26.249c-9.062,0-11.327-6.195-13.173-13.68-1.482-6.011-4.241-17.2-17.661-17.2a17.758,17.758,0,0,0-17.6,15.712h-8.821v4.086h8.821a17.757,17.757,0,0,0,17.6,15.711,17.559,17.559,0,0,0,12.853-5.525,2.313,2.313,0,1,0-3.351-3.19,12.98,12.98,0,0,1-9.5,4.085,13.125,13.125,0,0,1,0-26.249c9.063,0,11.327,6.2,13.173,13.68,1.482,6.01,4.241,17.2,17.661,17.2a17.757,17.757,0,0,0,17.6-15.711h29.461Z" transform="translate(-217.447 -213.833)" fill="url(#linear-gradient)"/>
        </g>
        <path id="Rect치ngulo_82" data-name="Rect치ngulo 82" d="M0,0H4.086a0,0,0,0,1,0,0V12.3a.609.609,0,0,1-.609.609H.609A.609.609,0,0,1,0,12.3V0A0,0,0,0,1,0,0Z" transform="translate(39.804 0)" fill="url(#linear-gradient-6)"/>
        <path id="Rect치ngulo_83" data-name="Rect치ngulo 83" d="M0,0H4.086a0,0,0,0,1,0,0V55.482a.609.609,0,0,1-.609.609H.609A.609.609,0,0,1,0,55.482V0A0,0,0,0,1,0,0Z" transform="translate(43.89 103.19) rotate(180)" fill="url(#linear-gradient-7)"/>
      </g>
    </g>
  </g>
</svg>
