<svg xmlns="http://www.w3.org/2000/svg" xmlns:xlink="http://www.w3.org/1999/xlink" width="157.326" height="47.935" viewBox="0 0 157.326 47.935">
  <defs>
    <linearGradient id="linear-gradient" y1="0.5" x2="1" y2="0.5" gradientUnits="objectBoundingBox">
      <stop offset="0" stop-color="#efd98b"/>
      <stop offset="0.549" stop-color="#edbc00"/>
      <stop offset="1" stop-color="#c6931a"/>
    </linearGradient>
    <linearGradient id="linear-gradient-6" x1="-0.482" y1="0.774" x2="1.482" y2="0.152" xlink:href="#linear-gradient"/>
    <linearGradient id="linear-gradient-7" x1="302.666" y1="32.881" x2="309.914" y2="32.353" xlink:href="#linear-gradient"/>
  </defs>
  <g id="Ilustración_21" data-name="Ilustración 21" transform="translate(78.663 23.968)">
    <g id="Grupo_10" data-name="Grupo 10" transform="translate(-78.663 -23.968)">
      <g id="Grupo_2" data-name="Grupo 2" transform="translate(57.051 5.526)">
        <g id="Grupo_1" data-name="Grupo 1">
          <path id="Trazado_1" data-name="Trazado 1" d="M144.79,16.894h-3.426V14.4h9.459v2.493H147.4V30.1H144.79Z" transform="translate(-141.364 -14.115)" fill="#6f00ff"/>
          <path id="Trazado_2" data-name="Trazado 2" d="M167.355,21.838a8.123,8.123,0,1,1,16.216.686H169.924a5.47,5.47,0,0,0,5.558,4.968,5.325,5.325,0,0,0,4.949-3.273h2.836a8.134,8.134,0,0,1-15.911-2.38Zm13.456-1.6a5.51,5.51,0,0,0-10.658,0Z" transform="translate(-156.866 -13.692)" fill="#6f00ff"/>
          <path id="Trazado_3" data-name="Trazado 3" d="M210.609,27.5a2.217,2.217,0,0,0,2.4-2.532V19.18a4.716,4.716,0,0,1,5.025-5.063v2.607a2.21,2.21,0,0,0-2.417,2.494v5.747a4.762,4.762,0,0,1-5.006,5.139Z" transform="translate(-182.663 -13.945)" fill="#6f00ff"/>
          <path id="Trazado_4" data-name="Trazado 4" d="M240.642,29.965a8.137,8.137,0,1,1,8.127-8.146A8.082,8.082,0,0,1,240.642,29.965Zm0-13.666a5.529,5.529,0,1,0,5.52,5.52A5.467,5.467,0,0,0,240.642,16.3Z" transform="translate(-195.717 -13.692)" fill="#6f00ff"/>
          <path id="Trazado_5" data-name="Trazado 5" d="M287.889,30.13,286.062,26.3a10.469,10.469,0,0,1-1.618.134h-1.18v3.711h-2.607v-15.7h3.463c4.93,0,6.738,2.874,6.738,6a5.7,5.7,0,0,1-2.474,4.968l2.626,4.721Zm-3.369-6.224c2.474,0,3.788-1.409,3.788-3.464,0-2.131-1.352-3.445-3.788-3.445h-1.256v6.909Z" transform="translate(-224.442 -14.142)" fill="#6f00ff"/>
          <path id="Trazado_6" data-name="Trazado 6" d="M320.5,29.965a8.137,8.137,0,1,1,8.127-8.146A8.082,8.082,0,0,1,320.5,29.965Zm0-13.666a5.529,5.529,0,1,0,5.52,5.52A5.468,5.468,0,0,0,320.5,16.3Z" transform="translate(-243.346 -13.692)" fill="#6f00ff"/>
          <path id="Trazado_7" data-name="Trazado 7" d="M355.657,27.5a2.218,2.218,0,0,0,2.4-2.532V19.18a4.716,4.716,0,0,1,5.024-5.063v2.607a2.21,2.21,0,0,0-2.417,2.494v5.747a4.762,4.762,0,0,1-5.005,5.139Z" transform="translate(-269.174 -13.945)" fill="#6f00ff"/>
          <path id="Trazado_8" data-name="Trazado 8" d="M148.421,71.27,144.095,81.8a.728.728,0,0,1-.257.359.636.636,0,0,1-.387.138.643.643,0,0,1-.515-.193.756.756,0,0,1-.184-.451,1.125,1.125,0,0,1,.037-.276L147.556,69.8a.853.853,0,0,1,.3-.387.669.669,0,0,1,.433-.11.765.765,0,0,1,.433.129.661.661,0,0,1,.267.368l4.749,11.468a.84.84,0,0,1,.055.3.689.689,0,0,1-.221.533.713.713,0,0,1-.5.2.687.687,0,0,1-.423-.138.825.825,0,0,1-.276-.378L148,71.252ZM145.015,78.8l.626-1.436h5.467l.276,1.436Z" transform="translate(-142.191 -46.857)" fill="#6f00ff"/>
          <path id="Trazado_9" data-name="Trazado 9" d="M177.423,86.951a.7.7,0,0,1-.524-.221.741.741,0,0,1-.211-.534V78.189a.734.734,0,0,1,.211-.543.768.768,0,0,1,1.058,0,.755.755,0,0,1,.2.543V80.6l-.221-.387a4.037,4.037,0,0,1,.4-1.114,3.889,3.889,0,0,1,.727-.975,3.357,3.357,0,0,1,1.013-.681,3.1,3.1,0,0,1,1.251-.248,1.485,1.485,0,0,1,.745.193.6.6,0,0,1,.341.543.767.767,0,0,1-.2.58.65.65,0,0,1-.46.193,1.015,1.015,0,0,1-.46-.111,1.228,1.228,0,0,0-.553-.111,1.826,1.826,0,0,0-.912.258,3.072,3.072,0,0,0-.828.709,3.759,3.759,0,0,0-.607,1.031,3.339,3.339,0,0,0-.23,1.243V86.2a.745.745,0,0,1-.211.534A.7.7,0,0,1,177.423,86.951Z" transform="translate(-162.432 -51.567)" fill="#6f00ff"/>
          <path id="Trazado_10" data-name="Trazado 10" d="M199.695,77.195a4.05,4.05,0,0,1,1.491.267,4.257,4.257,0,0,1,1.188.69,3.75,3.75,0,0,1,.791.884,1.66,1.66,0,0,1,.285.865l-.368-.22v-1.6a.724.724,0,0,1,.736-.737.734.734,0,0,1,.543.212.712.712,0,0,1,.212.524v8.063a4.614,4.614,0,0,1-.635,2.512,3.9,3.9,0,0,1-1.7,1.491,5.692,5.692,0,0,1-2.393.488,6.027,6.027,0,0,1-1.215-.138,6.805,6.805,0,0,1-1.178-.35,1.476,1.476,0,0,1-.663-.433.848.848,0,0,1-.34-.423.545.545,0,0,1,.064-.442.534.534,0,0,1,.442-.258,1.848,1.848,0,0,1,.663.166c.122.037.3.1.543.184a6.871,6.871,0,0,0,.81.23,4.068,4.068,0,0,0,.893.1,3.263,3.263,0,0,0,2.393-.819,2.908,2.908,0,0,0,.829-2.163V84.576l.2.092a2.418,2.418,0,0,1-.442.957,3.552,3.552,0,0,1-.819.783,4.114,4.114,0,0,1-1.077.534,3.869,3.869,0,0,1-1.215.193,4.238,4.238,0,0,1-2.31-.645,4.586,4.586,0,0,1-1.62-1.767,5.8,5.8,0,0,1,0-5.136,4.546,4.546,0,0,1,1.611-1.758A4.2,4.2,0,0,1,199.695,77.195Zm.2,1.362a3.1,3.1,0,0,0-1.685.469,3.2,3.2,0,0,0-1.159,1.289,4.043,4.043,0,0,0-.414,1.85A4,4,0,0,0,197.053,84a3.257,3.257,0,0,0,1.159,1.3,3.047,3.047,0,0,0,1.685.479,3.083,3.083,0,0,0,1.693-.469,3.3,3.3,0,0,0,1.16-1.279,3.962,3.962,0,0,0,.423-1.859,4.018,4.018,0,0,0-.423-1.869,3.219,3.219,0,0,0-1.16-1.279A3.128,3.128,0,0,0,199.9,78.557Z" transform="translate(-173.475 -51.567)" fill="#6f00ff"/>
          <path id="Trazado_11" data-name="Trazado 11" d="M230.087,87.135a5.175,5.175,0,0,1-2.6-.626,4.395,4.395,0,0,1-1.712-1.721,5.135,5.135,0,0,1-.607-2.531,5.5,5.5,0,0,1,.635-2.734,4.5,4.5,0,0,1,1.657-1.731,4.217,4.217,0,0,1,2.163-.6,4.426,4.426,0,0,1,1.638.313,4.08,4.08,0,0,1,1.4.921,4.717,4.717,0,0,1,.975,1.436,4.78,4.78,0,0,1,.387,1.877.622.622,0,0,1-.221.488.759.759,0,0,1-.516.193h-7.271l-.331-1.27h7.069l-.295.258v-.405a2.3,2.3,0,0,0-.488-1.3,2.988,2.988,0,0,0-2.347-1.132,3.1,3.1,0,0,0-1.1.2,2.766,2.766,0,0,0-.975.626,3.106,3.106,0,0,0-.7,1.1,4.5,4.5,0,0,0-.267,1.639,3.929,3.929,0,0,0,.433,1.878,3.268,3.268,0,0,0,1.206,1.279,3.409,3.409,0,0,0,1.8.469,3.446,3.446,0,0,0,1.123-.165,3.1,3.1,0,0,0,.819-.415,4.016,4.016,0,0,0,.58-.506.835.835,0,0,1,.478-.166.628.628,0,0,1,.626.626.751.751,0,0,1-.295.57,4.71,4.71,0,0,1-1.408.994A4.227,4.227,0,0,1,230.087,87.135Z" transform="translate(-191.349 -51.567)" fill="#6f00ff"/>
          <path id="Trazado_12" data-name="Trazado 12" d="M259.5,77.195a3.321,3.321,0,0,1,1.969.515,2.79,2.79,0,0,1,1.022,1.381,5.865,5.865,0,0,1,.3,1.951V86.2a.745.745,0,0,1-.212.534.7.7,0,0,1-.525.221.69.69,0,0,1-.534-.221.761.761,0,0,1-.2-.534V81.079a3.625,3.625,0,0,0-.212-1.27,1.867,1.867,0,0,0-.708-.912,2.314,2.314,0,0,0-1.325-.34,2.992,2.992,0,0,0-1.418.34,2.8,2.8,0,0,0-1.031.912,2.213,2.213,0,0,0-.387,1.27V86.2a.743.743,0,0,1-.212.534.734.734,0,0,1-1.049,0,.745.745,0,0,1-.211-.534V78.189a.737.737,0,0,1,.211-.543.768.768,0,0,1,1.059,0,.755.755,0,0,1,.2.543v1.289l-.368.4a2.6,2.6,0,0,1,.424-.967,3.847,3.847,0,0,1,.828-.874,4.237,4.237,0,0,1,1.1-.617A3.56,3.56,0,0,1,259.5,77.195Z" transform="translate(-209.005 -51.567)" fill="#6f00ff"/>
          <path id="Trazado_13" data-name="Trazado 13" d="M281.655,74.224h4.326a.647.647,0,0,1,.488.2.694.694,0,0,1,.193.5.639.639,0,0,1-.193.469.662.662,0,0,1-.488.193h-4.326a.685.685,0,0,1-.488-.2.642.642,0,0,1-.211-.479.631.631,0,0,1,.211-.488A.7.7,0,0,1,281.655,74.224Zm1.932-2.5a.668.668,0,0,1,.516.221.761.761,0,0,1,.2.534v8.873a1.341,1.341,0,0,0,.129.663.679.679,0,0,0,.34.3,1.137,1.137,0,0,0,.414.082.754.754,0,0,0,.322-.065.76.76,0,0,1,.322-.064.455.455,0,0,1,.341.175.652.652,0,0,1,.156.45.661.661,0,0,1-.386.562,1.657,1.657,0,0,1-.865.23c-.172,0-.384-.012-.635-.037a1.916,1.916,0,0,1-.745-.24,1.571,1.571,0,0,1-.617-.672,2.849,2.849,0,0,1-.249-1.316V72.476a.755.755,0,0,1,.754-.755Z" transform="translate(-224.62 -48.302)" fill="#6f00ff"/>
          <path id="Trazado_14" data-name="Trazado 14" d="M302.655,71.755a1.048,1.048,0,0,1-.681-.184.7.7,0,0,1-.221-.571v-.258a.674.674,0,0,1,.239-.57,1.1,1.1,0,0,1,.681-.184,1.02,1.02,0,0,1,.663.184.7.7,0,0,1,.22.57V71a.687.687,0,0,1-.23.571A1.055,1.055,0,0,1,302.655,71.755ZM303.41,81.9a.743.743,0,0,1-.212.534.7.7,0,0,1-.524.221.718.718,0,0,1-.543-.221.742.742,0,0,1-.212-.534V73.743a.743.743,0,0,1,.212-.534.717.717,0,0,1,.543-.221.7.7,0,0,1,.524.221.744.744,0,0,1,.212.534Z" transform="translate(-237.024 -47.268)" fill="#6f00ff"/>
          <path id="Trazado_15" data-name="Trazado 15" d="M319.347,77.195a3.321,3.321,0,0,1,1.969.515,2.79,2.79,0,0,1,1.022,1.381,5.866,5.866,0,0,1,.3,1.951V86.2a.745.745,0,0,1-.212.534.7.7,0,0,1-.525.221.69.69,0,0,1-.534-.221.761.761,0,0,1-.2-.534V81.079a3.625,3.625,0,0,0-.212-1.27,1.863,1.863,0,0,0-.708-.912,2.312,2.312,0,0,0-1.325-.34,2.994,2.994,0,0,0-1.418.34,2.8,2.8,0,0,0-1.031.912,2.212,2.212,0,0,0-.387,1.27V86.2a.745.745,0,0,1-.212.534.734.734,0,0,1-1.049,0,.744.744,0,0,1-.212-.534V78.189a.736.736,0,0,1,.212-.543.768.768,0,0,1,1.058,0,.755.755,0,0,1,.2.543v1.289l-.369.4a2.61,2.61,0,0,1,.424-.967,3.866,3.866,0,0,1,.828-.874,4.228,4.228,0,0,1,1.1-.617A3.552,3.552,0,0,1,319.347,77.195Z" transform="translate(-244.696 -51.567)" fill="#6f00ff"/>
          <path id="Trazado_16" data-name="Trazado 16" d="M351.718,82.165a5.1,5.1,0,0,1-.635,2.559,4.727,4.727,0,0,1-1.712,1.767,4.62,4.62,0,0,1-2.421.645,4.674,4.674,0,0,1-4.151-2.411,5.471,5.471,0,0,1,0-5.117,4.672,4.672,0,0,1,4.151-2.411,4.623,4.623,0,0,1,2.421.644,4.737,4.737,0,0,1,1.712,1.767A5.1,5.1,0,0,1,351.718,82.165Zm-1.491,0a3.876,3.876,0,0,0-.432-1.869,3.361,3.361,0,0,0-1.178-1.27,3.063,3.063,0,0,0-1.666-.469,3.1,3.1,0,0,0-1.685.469,3.431,3.431,0,0,0-1.187,1.27,4.155,4.155,0,0,0,0,3.728,3.409,3.409,0,0,0,1.187,1.279,3.1,3.1,0,0,0,1.685.469,3.063,3.063,0,0,0,1.666-.469,3.341,3.341,0,0,0,1.178-1.279A3.889,3.889,0,0,0,350.227,82.165Z" transform="translate(-261.126 -51.567)" fill="#6f00ff"/>
          <path id="Trazado_17" data-name="Trazado 17" d="M371.928,85.442a.888.888,0,0,1-.138-.506.6.6,0,0,1,.3-.469.722.722,0,0,1,.451-.11.671.671,0,0,1,.451.239,4.108,4.108,0,0,0,1.178.967,3.368,3.368,0,0,0,1.62.359,3.766,3.766,0,0,0,.874-.147,1.633,1.633,0,0,0,.755-.451,1.2,1.2,0,0,0,.3-.856,1.089,1.089,0,0,0-.313-.819,2.372,2.372,0,0,0-.819-.5,10.029,10.029,0,0,0-1.077-.341q-.607-.165-1.2-.368a4.353,4.353,0,0,1-1.058-.525,2.51,2.51,0,0,1-.755-.81,2.59,2.59,0,0,1,.166-2.642,2.928,2.928,0,0,1,1.206-.938,4.117,4.117,0,0,1,1.675-.331,5.162,5.162,0,0,1,1.077.119,4.2,4.2,0,0,1,1.095.4,3.092,3.092,0,0,1,.939.783.74.74,0,0,1,.184.46.589.589,0,0,1-.239.5.707.707,0,0,1-.451.138.6.6,0,0,1-.414-.175,2.63,2.63,0,0,0-.984-.727,3.219,3.219,0,0,0-1.279-.248,2.712,2.712,0,0,0-.847.138,1.709,1.709,0,0,0-.709.433,1.141,1.141,0,0,0-.285.828,1.155,1.155,0,0,0,.331.81,2.263,2.263,0,0,0,.847.506q.533.194,1.178.378.588.147,1.132.34a4.033,4.033,0,0,1,.985.506,2.265,2.265,0,0,1,.7.8,2.6,2.6,0,0,1,.258,1.224,2.314,2.314,0,0,1-.479,1.463,3,3,0,0,1-1.261.939,4.383,4.383,0,0,1-1.684.322,5.625,5.625,0,0,1-2.006-.377A3.87,3.87,0,0,1,371.928,85.442Z" transform="translate(-278.795 -51.567)" fill="#6f00ff"/>
        </g>
      </g>
      <g id="Grupo_5" data-name="Grupo 5" transform="translate(0 0)">
        <g id="Grupo_4" data-name="Grupo 4">
          <g id="Grupo_3" data-name="Grupo 3">
            <path id="Trazado_18" data-name="Trazado 18" d="M4.1,12.962l.011,0a8.241,8.241,0,0,1,8.17-7.293c6.228,0,7.509,5.193,8.2,7.983C21.337,17.128,22.389,20,26.594,20a6.092,6.092,0,0,0,0-12.183,6.021,6.021,0,0,0-4.409,1.9,1.074,1.074,0,0,1-1.556-1.48,8.15,8.15,0,0,1,5.964-2.565,8.241,8.241,0,0,1,8.17,7.291h13.7V9.187A9.187,9.187,0,0,0,39.274,0H20.388V5.031c0,.353-.425.64-.949.64s-.949-.287-.949-.64V0h-9.3A9.186,9.186,0,0,0,0,9.187v3.776ZM24,16.013l2.064-4.981a.621.621,0,0,1,1.147,0L29.265,16a.6.6,0,0,1,0,.475.62.62,0,0,1-1.147,0l-1.483-3.581-1.489,3.595A.622.622,0,1,1,24,16.013Z" transform="translate(0 0)" fill="url(#linear-gradient)"/>
            <path id="Trazado_19" data-name="Trazado 19" d="M34.764,26.417a8.241,8.241,0,0,1-8.17,7.291c-6.228,0-7.509-5.193-8.2-7.983-.857-3.474-1.909-6.349-6.113-6.349a6.092,6.092,0,0,0,0,12.183,6.027,6.027,0,0,0,4.41-1.9,1.073,1.073,0,1,1,1.554,1.48,8.147,8.147,0,0,1-5.964,2.565,8.241,8.241,0,0,1-8.17-7.293l-.01,0H0V50.305a9.187,9.187,0,0,0,9.187,9.187h9.3V34.457a.976.976,0,0,1,1.9,0V59.492H39.274a9.187,9.187,0,0,0,9.187-9.187V26.417ZM14.882,23.366l-2.064,4.981a.621.621,0,0,1-1.147,0L9.614,23.38a.622.622,0,0,1,.335-.812.622.622,0,0,1,.812.336l1.484,3.581,1.488-3.595a.622.622,0,0,1,1.149.476Z" transform="translate(0 -11.556)" fill="url(#linear-gradient)"/>
          </g>
        </g>
      </g>
      <g id="Grupo_9" data-name="Grupo 9" transform="translate(0 0)">
        <g id="Grupo_7" data-name="Grupo 7">
          <g id="Grupo_6" data-name="Grupo 6">
            <path id="Trazado_20" data-name="Trazado 20" d="M4.1,12.962l.011,0a8.241,8.241,0,0,1,8.17-7.293c6.228,0,7.509,5.193,8.2,7.983C21.337,17.128,22.389,20,26.594,20a6.092,6.092,0,0,0,0-12.183,6.021,6.021,0,0,0-4.409,1.9,1.074,1.074,0,0,1-1.556-1.48,8.15,8.15,0,0,1,5.964-2.565,8.241,8.241,0,0,1,8.17,7.291h13.7V9.187A9.187,9.187,0,0,0,39.274,0H20.388V5.031c0,.353-.425.64-.949.64s-.949-.287-.949-.64V0h-9.3A9.186,9.186,0,0,0,0,9.187v3.776ZM24,16.013l2.064-4.981a.621.621,0,0,1,1.147,0L29.265,16a.6.6,0,0,1,0,.475.62.62,0,0,1-1.147,0l-1.483-3.581-1.489,3.595A.622.622,0,1,1,24,16.013Z" transform="translate(0 0)" fill="#6f00ff"/>
            <path id="Trazado_21" data-name="Trazado 21" d="M34.764,26.417a8.241,8.241,0,0,1-8.17,7.291c-6.228,0-7.509-5.193-8.2-7.983-.857-3.474-1.909-6.349-6.113-6.349a6.092,6.092,0,0,0,0,12.183,6.027,6.027,0,0,0,4.41-1.9,1.073,1.073,0,1,1,1.554,1.48,8.147,8.147,0,0,1-5.964,2.565,8.241,8.241,0,0,1-8.17-7.293l-.01,0H0V50.305a9.187,9.187,0,0,0,9.187,9.187h9.3V34.457a.976.976,0,0,1,1.9,0V59.492H39.274a9.187,9.187,0,0,0,9.187-9.187V26.417ZM14.882,23.366l-2.064,4.981a.621.621,0,0,1-1.147,0L9.614,23.38a.622.622,0,0,1,.335-.812.622.622,0,0,1,.812.336l1.484,3.581,1.488-3.595a.622.622,0,0,1,1.149.476Z" transform="translate(0 -11.556)" fill="#6f00ff"/>
          </g>
        </g>
        <g id="Grupo_8" data-name="Grupo 8" transform="translate(0 5.664)">
          <path id="Trazado_22" data-name="Trazado 22" d="M28.656,27.172a.622.622,0,0,0-.813.337l-1.49,3.6-1.484-3.584a.622.622,0,0,0-1.149,0,.616.616,0,0,0,0,.476l2.059,4.972a.622.622,0,0,0,1.149,0l2.065-4.986a.622.622,0,0,0-.337-.813Z" transform="translate(-14.118 -21.841)" fill="url(#linear-gradient)"/>
          <path id="Trazado_23" data-name="Trazado 23" d="M59.728,32.561a.622.622,0,0,0,.813-.337l1.49-3.6,1.484,3.583a.622.622,0,1,0,1.149-.476l-2.059-4.971a.622.622,0,0,0-1.149,0l-2.065,4.986a.623.623,0,0,0,.337.813Z" transform="translate(-35.394 -21.397)" fill="url(#linear-gradient)"/>
          <path id="Trazado_24" data-name="Trazado 24" d="M48.46,21.333H34.774a8.249,8.249,0,0,0-8.177-7.3,8.157,8.157,0,0,0-5.97,2.567,1.075,1.075,0,1,0,1.557,1.482,6.03,6.03,0,0,1,4.414-1.9,6.1,6.1,0,0,1,0,12.194c-4.21,0-5.262-2.878-6.119-6.355-.689-2.792-1.97-7.99-8.2-7.99a8.249,8.249,0,0,0-8.177,7.3H0v1.9H4.1a8.249,8.249,0,0,0,8.177,7.3,8.157,8.157,0,0,0,5.97-2.567,1.075,1.075,0,1,0-1.557-1.482,6.03,6.03,0,0,1-4.414,1.9,6.1,6.1,0,0,1,0-12.194c4.21,0,5.262,2.878,6.119,6.355.689,2.792,1.97,7.99,8.2,7.99a8.249,8.249,0,0,0,8.177-7.3H48.46Z" transform="translate(0 -14.034)" fill="url(#linear-gradient)"/>
        </g>
        <path id="Rectángulo_1" data-name="Rectángulo 1" d="M0,0H1.9a0,0,0,0,1,0,0V5.243A.755.755,0,0,1,1.143,6H.755A.755.755,0,0,1,0,5.243V0A0,0,0,0,1,0,0Z" transform="translate(18.49 0)" fill="url(#linear-gradient-6)"/>
        <path id="Rectángulo_2" data-name="Rectángulo 2" d="M0,0H1.9a0,0,0,0,1,0,0V25.3a.755.755,0,0,1-.755.755H.755A.755.755,0,0,1,0,25.3V0A0,0,0,0,1,0,0Z" transform="translate(20.388 47.935) rotate(180)" fill="url(#linear-gradient-7)"/>
      </g>
    </g>
  </g>
</svg>
