<svg xmlns="http://www.w3.org/2000/svg" width="34.414" height="34.415" viewBox="0 0 34.414 34.415">
  <path id="Trazado_250" data-name="Trazado 250" d="M64.062,11.607A17.207,17.207,0,1,0,81.27,28.815,17.208,17.208,0,0,0,64.062,11.607ZM73.22,26.816h0a4.863,4.863,0,0,1-.515.026,5.586,5.586,0,0,1-4.676-2.527v8.607a6.361,6.361,0,1,1-6.359-6.362c.132,0,.261.013.393.021v3.134a3.318,3.318,0,0,0-.393-.039,3.246,3.246,0,1,0,0,6.491,3.325,3.325,0,0,0,3.375-3.207l.031-14.615h3a5.584,5.584,0,0,0,5.146,4.986Z" transform="translate(-46.856 -11.607)" fill="#f8f8f8"/>
</svg>
