<svg xmlns="http://www.w3.org/2000/svg" width="34.414" height="34.415" viewBox="0 0 34.414 34.415">
  <path id="Trazado_251" data-name="Trazado 251" d="M48.423,11.607A17.207,17.207,0,1,0,65.629,28.815,17.208,17.208,0,0,0,48.423,11.607Zm8.115,14.622a11.219,11.219,0,0,1-.284,2.483A11.641,11.641,0,0,1,44.64,37.939a11.969,11.969,0,0,1-6.409-1.849,8.572,8.572,0,0,0,6.191-1.7,4.178,4.178,0,0,1-3.905-2.86,4.156,4.156,0,0,0,.786.075,4.4,4.4,0,0,0,1.1-.142,4.18,4.18,0,0,1-3.067-2.547,4.033,4.033,0,0,1-.287-1.492v-.052a4.186,4.186,0,0,0,1.893.515,4.1,4.1,0,0,1-1.859-3.424,4.048,4.048,0,0,1,.566-2.069,11.947,11.947,0,0,0,8.617,4.3,4.127,4.127,0,0,1,4.076-5.056,4.211,4.211,0,0,1,3.052,1.3,8.4,8.4,0,0,0,2.656-1,4.153,4.153,0,0,1-1.839,2.278,8.378,8.378,0,0,0,2.4-.647A8.457,8.457,0,0,1,56.529,25.7C56.536,25.872,56.539,26.051,56.539,26.229Z" transform="translate(-31.215 -11.607)" fill="#f8f8f8"/>
</svg>
