<svg xmlns="http://www.w3.org/2000/svg" width="314.943" height="45.471" viewBox="0 0 314.943 45.471">
  <g id="Artwork_1" data-name="Artwork 1" transform="translate(157.472 22.735)">
    <g id="Grupo_126" data-name="Grupo 126" transform="translate(-157.472 -22.735)">
      <g id="Grupo_123" data-name="Grupo 123" transform="translate(0 3.027)">
        <path id="Trazado_165" data-name="Trazado 165" d="M141.7,15.652a2.366,2.366,0,1,1,2.409-2.366A2.39,2.39,0,0,1,141.7,15.652Z" transform="translate(-100.684 -10.92)" fill="#fff"/>
        <path id="Trazado_166" data-name="Trazado 166" d="M143.451,49.379a1.669,1.669,0,0,1-1.246-.508,1.739,1.739,0,0,1-.493-1.258V36.243a1.741,1.741,0,0,1,.493-1.258,1.781,1.781,0,0,1,2.491,0,1.743,1.743,0,0,1,.493,1.258V47.613a1.741,1.741,0,0,1-.493,1.258h0A1.671,1.671,0,0,1,143.451,49.379Z" transform="translate(-102.434 -27.948)" fill="#fff"/>
        <path id="Trazado_167" data-name="Trazado 167" d="M8.654,35.438A1.673,1.673,0,0,1,7.1,34.4L.128,17.559a1.678,1.678,0,1,1,3.1-1.284l5.427,13.1L14.1,16.226a1.678,1.678,0,0,1,3.1,1.284L10.2,34.4A1.673,1.673,0,0,1,8.654,35.438Z" transform="translate(0 -14.007)" fill="#fff"/>
        <path id="Trazado_168" data-name="Trazado 168" d="M70.383,32.351a1.67,1.67,0,0,1-1.246-.508,1.739,1.739,0,0,1-.493-1.258V19.215a1.741,1.741,0,0,1,.493-1.258,1.782,1.782,0,0,1,2.491,0,1.744,1.744,0,0,1,.492,1.258V30.586a1.742,1.742,0,0,1-.492,1.258h0A1.671,1.671,0,0,1,70.383,32.351Zm2.409-19.065a2.409,2.409,0,1,0-2.409,2.366A2.39,2.39,0,0,0,72.792,13.286Z" transform="translate(-49.133 -10.92)" fill="#fff"/>
        <path id="Trazado_169" data-name="Trazado 169" d="M96.84,47.609A9.463,9.463,0,0,1,93.422,47a5.735,5.735,0,0,1-2.6-1.984,1.426,1.426,0,0,1-.264-.877,1.532,1.532,0,0,1,.753-1.282,1.549,1.549,0,0,1,.847-.263,1.644,1.644,0,0,1,1.162.548,5.745,5.745,0,0,0,1.7,1.249,5.065,5.065,0,0,0,2.125.4c1.386-.053,2.062-.557,2.062-1.538a1.227,1.227,0,0,0-.686-1.137,10.28,10.28,0,0,0-2.251-.817,19.77,19.77,0,0,1-2.614-.886,4.7,4.7,0,0,1-1.767-1.36,3.8,3.8,0,0,1-.749-2.463,3.746,3.746,0,0,1,.775-2.352,5.087,5.087,0,0,1,2.016-1.54,7.274,7.274,0,0,1,5.474-.016,5,5,0,0,1,2.24,1.569,1.624,1.624,0,0,1,.376,1.044,1.368,1.368,0,0,1-.556,1.114,1.476,1.476,0,0,1-.934.321,1.43,1.43,0,0,1-1.052-.41,3.444,3.444,0,0,0-1.255-.946,4.17,4.17,0,0,0-1.74-.35c-1.35,0-2.006.467-2.006,1.428a1.2,1.2,0,0,0,.359.915,2.563,2.563,0,0,0,.946.559c.392.137.951.308,1.661.508a18.4,18.4,0,0,1,2.489.858,4.359,4.359,0,0,1,1.713,1.376,3.967,3.967,0,0,1,.706,2.447,3.773,3.773,0,0,1-.817,2.408,5.16,5.16,0,0,1-2.085,1.554A6.748,6.748,0,0,1,96.84,47.609Z" transform="translate(-65.458 -26.272)" fill="#fff"/>
        <path id="Trazado_170" data-name="Trazado 170" d="M167.825,37.223a5.442,5.442,0,0,1-2.923-.743c-.8-.5-1.211-1.567-1.211-3.17V25.8h-1.18a1.592,1.592,0,0,1-1.628-1.628,1.5,1.5,0,0,1,.467-1.121,1.609,1.609,0,0,1,1.161-.451h1.18V19.426a1.732,1.732,0,0,1,1.766-1.766,1.64,1.64,0,0,1,1.218.508,1.743,1.743,0,0,1,.493,1.258V22.6h1.868a1.592,1.592,0,0,1,1.628,1.628,1.507,1.507,0,0,1-.467,1.122,1.609,1.609,0,0,1-1.161.451h-1.868v7.375a.977.977,0,0,0,.273.774,1.143,1.143,0,0,0,.77.241,2.293,2.293,0,0,0,.582-.107,1.717,1.717,0,0,1,.657-.141,1,1,0,0,1,.767.4h0A1.558,1.558,0,0,1,169.7,36.7,3.476,3.476,0,0,1,167.825,37.223Z" transform="translate(-116.29 -15.792)" fill="#fff"/>
      </g>
      <g id="Grupo_124" data-name="Grupo 124" transform="translate(55.148 2.08)">
        <path id="Trazado_171" data-name="Trazado 171" d="M314.241,68.3a2.691,2.691,0,0,1-2.006-.818,2.8,2.8,0,0,1-.793-2.026V47.138a2.8,2.8,0,0,1,.793-2.026,2.869,2.869,0,0,1,4.012,0,2.807,2.807,0,0,1,.793,2.026v.082a6.9,6.9,0,0,1,2.727-2.4,9.17,9.17,0,0,1,4.142-.968,3.543,3.543,0,0,1,2.328.786h0a2.392,2.392,0,0,1,.959,1.881,2.892,2.892,0,0,1-.752,2.162,2.483,2.483,0,0,1-1.782.726,4.566,4.566,0,0,1-1.556-.319c-.083-.027-.281-.086-.589-.174a3.492,3.492,0,0,0-.96-.128,3.825,3.825,0,0,0-2.141.687,5.066,5.066,0,0,0-1.7,2.095,7.818,7.818,0,0,0-.674,3.378v10.51a2.8,2.8,0,0,1-.793,2.026A2.692,2.692,0,0,1,314.241,68.3Z" transform="translate(-280.266 -33.776)" fill="#fff"/>
        <path id="Trazado_172" data-name="Trazado 172" d="M384.815,77.167a21.1,21.1,0,0,1-3.685-.446,16.381,16.381,0,0,1-3.335-.9c-1.5-.641-2.255-1.549-2.255-2.7a2.419,2.419,0,0,1,.14-.753,2.88,2.88,0,0,1,.955-1.551,2.342,2.342,0,0,1,1.483-.54,2.8,2.8,0,0,1,.886.14c.068.016.383.123,2.2.822a10.224,10.224,0,0,0,3.609.767,7.608,7.608,0,0,0,4.813-1.278,4.378,4.378,0,0,0,1.567-3.6V65.42a9.5,9.5,0,0,1-2.742,2.194,8.69,8.69,0,0,1-4.3,1.126,10.732,10.732,0,0,1-5.728-1.595,11.208,11.208,0,0,1-4.063-4.422,13.661,13.661,0,0,1-1.479-6.406,13.966,13.966,0,0,1,1.457-6.427,11.132,11.132,0,0,1,4-4.445,10.436,10.436,0,0,1,5.64-1.6,9.839,9.839,0,0,1,4.273.945,10.371,10.371,0,0,1,2.95,2.037v-.139a2.805,2.805,0,0,1,.793-2.026A2.692,2.692,0,0,1,394,43.85a2.731,2.731,0,0,1,2.005.795h0a2.787,2.787,0,0,1,.795,2.049V66.429c0,3.635-1.145,6.365-3.4,8.115A13.653,13.653,0,0,1,384.815,77.167Zm0-28.161a6.015,6.015,0,0,0-4.73,2.081,7.69,7.69,0,0,0-1.829,5.231,7.605,7.605,0,0,0,1.828,5.208,6.044,6.044,0,0,0,4.73,2.06,6.112,6.112,0,0,0,4.752-2.06h0a7.551,7.551,0,0,0,1.85-5.207,7.635,7.635,0,0,0-1.85-5.23A6.083,6.083,0,0,0,384.815,49.006Z" transform="translate(-324.675 -33.776)" fill="#fff"/>
        <path id="Trazado_173" data-name="Trazado 173" d="M863.924,68.74a10.318,10.318,0,0,1-5.618-1.6,11.217,11.217,0,0,1-3.974-4.421,13.828,13.828,0,0,1-1.457-6.405,14.141,14.141,0,0,1,1.434-6.426,11.09,11.09,0,0,1,3.93-4.445,10.061,10.061,0,0,1,5.507-1.6,10.469,10.469,0,0,1,4.044.787,10.87,10.87,0,0,1,2.966,1.8,2.764,2.764,0,0,1,.784-1.768,2.693,2.693,0,0,1,2.006-.818,2.731,2.731,0,0,1,2,.795,2.788,2.788,0,0,1,.795,2.049V62.438a1.22,1.22,0,0,0,.115.577c.084.154.173.172.233.172a1.96,1.96,0,0,0,.544-.189,2.458,2.458,0,0,1,.964-.21,1.273,1.273,0,0,1,.968.467,1.986,1.986,0,0,1,.413,1.356,3.189,3.189,0,0,1-1.409,2.661,5.648,5.648,0,0,1-3.431,1.025,3.539,3.539,0,0,1-2.236-.739,5.263,5.263,0,0,1-1.484-1.743,10.669,10.669,0,0,1-3.069,2A9.212,9.212,0,0,1,863.924,68.74Zm.665-19.735a5.74,5.74,0,0,0-4.552,2.08,8.57,8.57,0,0,0-.022,10.441,5.747,5.747,0,0,0,4.573,2.058,5.814,5.814,0,0,0,4.6-2.059,7.721,7.721,0,0,0,1.785-5.209,7.81,7.81,0,0,0-1.785-5.232A5.788,5.788,0,0,0,864.589,49.006Z" transform="translate(-671.628 -33.776)" fill="#fff"/>
        <path id="Trazado_174" data-name="Trazado 174" d="M201.666,47a2.7,2.7,0,0,1-2.494-3.737l11.271-27.209a2.7,2.7,0,0,1,4.993,0l11.238,27.131a2.7,2.7,0,1,1-4.994,2.069l-8.741-21.1-8.774,21.182a2.7,2.7,0,0,1-2.5,1.669h0Z" transform="translate(-198.965 -12.477)" fill="#fff"/>
        <path id="Trazado_175" data-name="Trazado 175" d="M491.486,49.818a12.134,12.134,0,0,0-4.194-4.351A10.543,10.543,0,0,0,481.7,43.85,11.073,11.073,0,0,0,476.04,45.4a11.521,11.521,0,0,0-4.265,4.465,13.8,13.8,0,0,0-1.614,6.764,12.666,12.666,0,0,0,1.525,6.209,11.011,11.011,0,0,0,4.333,4.334,13.891,13.891,0,0,0,10.823.853,10.773,10.773,0,0,0,3.367-1.752A2.91,2.91,0,0,0,491.5,63.99a2.271,2.271,0,0,0-.706-1.65,2.656,2.656,0,0,0-3.273-.287q-.223.133-.823.512a7.286,7.286,0,0,1-1.588.695,9.455,9.455,0,0,1-2.8.326,6.709,6.709,0,0,1-4.217-1.457,6.535,6.535,0,0,1-2.353-3.854h14.463a2.969,2.969,0,0,0,1.952-.7,2.425,2.425,0,0,0,.893-1.836A11.755,11.755,0,0,0,491.486,49.818Zm-16.031,4.021.032-.165c.633-3.282,2.722-4.946,6.212-4.946a5.918,5.918,0,0,1,3.813,1.361,4.744,4.744,0,0,1,1.869,3.287v.462Z" transform="translate(-394.993 -33.776)" fill="#fff"/>
        <path id="Trazado_176" data-name="Trazado 176" d="M585.1,68.3a2.69,2.69,0,0,1-2.006-.818,2.8,2.8,0,0,1-.793-2.026V54.1a6.287,6.287,0,0,0-.993-3.754,3.945,3.945,0,0,0-3.392-1.34,5.3,5.3,0,0,0-3.937,1.444,5.011,5.011,0,0,0-1.423,3.65V65.453a2.8,2.8,0,0,1-.794,2.026,2.869,2.869,0,0,1-4.012,0,2.8,2.8,0,0,1-.793-2.026V47.138a2.8,2.8,0,0,1,.793-2.026,2.869,2.869,0,0,1,4.012,0,2.806,2.806,0,0,1,.794,2.026v.353a11.093,11.093,0,0,1,2.916-2.467,8.278,8.278,0,0,1,4.306-1.173c3.052,0,5.195.924,6.37,2.747h0a13.834,13.834,0,0,1,1.751,7.5V65.453a2.805,2.805,0,0,1-.793,2.026A2.693,2.693,0,0,1,585.1,68.3Z" transform="translate(-464.96 -33.776)" fill="#fff"/>
        <path id="Trazado_177" data-name="Trazado 177" d="M664.7,49.874a8.768,8.768,0,0,1-4.708-1.2c-1.294-.806-1.95-2.524-1.95-5.107v-12.1h-1.9a2.564,2.564,0,0,1-2.622-2.622,2.424,2.424,0,0,1,.752-1.807,2.59,2.59,0,0,1,1.87-.726h1.9V21.206a2.79,2.79,0,0,1,2.844-2.844,2.642,2.642,0,0,1,1.962.818,2.808,2.808,0,0,1,.793,2.026v5.108h3.01a2.564,2.564,0,0,1,2.622,2.622,2.425,2.425,0,0,1-.752,1.807,2.592,2.592,0,0,1-1.87.726h-3.01v11.88a1.575,1.575,0,0,0,.44,1.248,1.842,1.842,0,0,0,1.24.388,3.694,3.694,0,0,0,.938-.172,2.761,2.761,0,0,1,1.058-.227,1.615,1.615,0,0,1,1.236.647h0a2.509,2.509,0,0,1-.83,3.8A5.594,5.594,0,0,1,664.7,49.874Z" transform="translate(-527.527 -15.353)" fill="#fff"/>
        <path id="Trazado_178" data-name="Trazado 178" d="M725.018,42.026a2.689,2.689,0,0,1-2.006-.818,2.8,2.8,0,0,1-.793-2.026V20.866a2.8,2.8,0,0,1,.793-2.026,2.869,2.869,0,0,1,4.012,0,2.806,2.806,0,0,1,.793,2.026V39.182a2.8,2.8,0,0,1-.793,2.026h0A2.692,2.692,0,0,1,725.018,42.026Zm3.88-30.71a3.881,3.881,0,1,0-3.88,3.811A3.851,3.851,0,0,0,728.9,11.316Z" transform="translate(-576.405 -7.505)" fill="#fff"/>
        <path id="Trazado_179" data-name="Trazado 179" d="M781.261,68.3a2.689,2.689,0,0,1-2.006-.818,2.8,2.8,0,0,1-.793-2.026V54.1a6.288,6.288,0,0,0-.993-3.754,3.945,3.945,0,0,0-3.392-1.34,5.3,5.3,0,0,0-3.937,1.444,5.01,5.01,0,0,0-1.424,3.65V65.453a2.805,2.805,0,0,1-.793,2.026,2.869,2.869,0,0,1-4.013,0,2.8,2.8,0,0,1-.793-2.026V47.138a2.805,2.805,0,0,1,.793-2.026,2.87,2.87,0,0,1,4.013,0,2.808,2.808,0,0,1,.793,2.026v.353a11.1,11.1,0,0,1,2.916-2.467,8.279,8.279,0,0,1,4.307-1.173c3.051,0,5.194.924,6.369,2.747h0a13.83,13.83,0,0,1,1.752,7.5V65.453a2.8,2.8,0,0,1-.793,2.026A2.694,2.694,0,0,1,781.261,68.3Z" transform="translate(-606.748 -33.776)" fill="#fff"/>
      </g>
      <g id="Grupo_125" data-name="Grupo 125" transform="translate(265.072)">
        <path id="Trazado_180" data-name="Trazado 180" d="M992.87,0a13.211,13.211,0,0,0-9.67,4.157,1.74,1.74,0,0,0,2.521,2.4,9.764,9.764,0,0,1,7.148-3.074,9.874,9.874,0,0,1,0,19.748c-6.818,0-8.522-4.66-9.91-10.291C981.845,8.417,979.769,0,969.673,0a13.357,13.357,0,0,0,0,26.714,13.209,13.209,0,0,0,9.669-4.157,1.74,1.74,0,1,0-2.521-2.4,9.765,9.765,0,0,1-7.148,3.073,9.874,9.874,0,0,1,0-19.748c6.818,0,8.522,4.661,9.91,10.291,1.115,4.522,3.191,12.939,13.287,12.939A13.357,13.357,0,0,0,992.87,0Z" transform="translate(-956.336)" fill="#fff"/>
        <path id="Trazado_181" data-name="Trazado 181" d="M992.9,40.958a1,1,0,0,1-.931-.622l-3.335-8.051a1.008,1.008,0,0,1,1.862-.771l2.4,5.8,2.414-5.827a1.008,1.008,0,0,1,1.862.771l-3.344,8.074A1,1,0,0,1,992.9,40.958Z" transform="translate(-979.626 -22.312)" fill="#fff"/>
        <path id="Trazado_182" data-name="Trazado 182" d="M1077.024,29.109a1,1,0,0,1,.931.622l3.335,8.051a1.008,1.008,0,0,1-1.862.771l-2.4-5.8-2.414,5.827a1.007,1.007,0,0,1-1.862-.771l3.344-8.074A1,1,0,0,1,1077.024,29.109Z" transform="translate(-1040.426 -21.041)" fill="#fff"/>
      </g>
    </g>
  </g>
</svg>
