<svg xmlns="http://www.w3.org/2000/svg" width="30.247" height="30.428" viewBox="0 0 30.247 30.428">
  <path id="Trazado_70" data-name="Trazado 70" d="M24.184,20.247c-.3-.152-2.279-1.064-2.583-1.216a.716.716,0,0,0-.912.152c-.3.3-.912,1.216-1.216,1.519-.152.3-.456.3-.76.152a12.422,12.422,0,0,1-3.039-1.823,17.491,17.491,0,0,1-2.127-2.583.668.668,0,0,1,.152-.76c.152-.152.3-.456.608-.608a1.152,1.152,0,0,0,.3-.608.462.462,0,0,0,0-.608A27.009,27.009,0,0,1,13.4,11.13c-.152-1.064-.456-1.064-.76-1.064h-.76a1.733,1.733,0,0,0-.912.456A4.373,4.373,0,0,0,9.6,13.713a7.96,7.96,0,0,0,1.519,3.951A16.2,16.2,0,0,0,17.5,23.286a11.909,11.909,0,0,0,2.127.76,4.34,4.34,0,0,0,2.431.152,3.936,3.936,0,0,0,2.583-1.823,2.541,2.541,0,0,0,.152-1.823l-.608-.3m3.8-13.827A15.146,15.146,0,0,0,4.127,24.653L2,32.4l8.053-2.127A15.013,15.013,0,0,0,32.238,17.056,14.8,14.8,0,0,0,27.983,6.419m-4.1,21.273a12.752,12.752,0,0,1-6.686,1.975A13.325,13.325,0,0,1,10.813,28l-.456-.3-4.71,1.216,1.216-4.558-.3-.456a12.758,12.758,0,0,1,4.1-17.474,12.361,12.361,0,0,1,17.17,3.951,12.538,12.538,0,0,1-3.951,17.322" transform="translate(-2 -1.975)" fill="#fff"/>
</svg>
