<svg id="Grupo_142" data-name="Grupo 142" xmlns="http://www.w3.org/2000/svg" width="34.417" height="34.417" viewBox="0 0 34.417 34.417">
  <g id="Grupo_141" data-name="Grupo 141">
    <path id="Trazado_256" data-name="Trazado 256" d="M79.705,11.607A17.208,17.208,0,1,0,96.914,28.815,17.208,17.208,0,0,0,79.705,11.607ZM89.9,28.35v1.316a33.415,33.415,0,0,1-.2,3.44,4.715,4.715,0,0,1-.809,2.108,2.849,2.849,0,0,1-2.04.9c-2.855.215-7.138.222-7.138.222s-5.3-.052-6.928-.215a3.375,3.375,0,0,1-2.25-.908,4.722,4.722,0,0,1-.809-2.11,33.412,33.412,0,0,1-.2-3.44V28.055a33.429,33.429,0,0,1,.2-3.442,4.732,4.732,0,0,1,.809-2.11,2.839,2.839,0,0,1,2.043-.9c2.85-.215,7.133-.215,7.133-.215h.008s4.278,0,7.133.212a2.854,2.854,0,0,1,2.04.9,4.722,4.722,0,0,1,.809,2.11,33.415,33.415,0,0,1,.2,3.44Z" transform="translate(-62.497 -11.607)" fill="#f8f8f8"/>
    <path id="Trazado_257" data-name="Trazado 257" d="M68.337,17.037v1.392l0,4.579,5.505-2.974L70.82,18.388Z" transform="translate(-53.234 -2.995)" fill="#f8f8f8"/>
  </g>
</svg>
